<svg xmlns="http://www.w3.org/2000/svg" viewBox="0 0 500 500"><g id="freepik--Screens--inject-75"><rect x="139.34" y="106.99" width="170.1" height="352.91" rx="17.91" style="fill:#fafafa"></rect><path d="M291.53,459.9l.65,0a13.92,13.92,0,0,0,1.95-.19,17.66,17.66,0,0,0,7.12-2.7,18.77,18.77,0,0,0,4.17-3.78,17.42,17.42,0,0,0,3.17-6c.14-.59.33-1.2.45-1.82s.23-1.27.25-1.94c.09-1.32.07-2.7.07-4.12q0-4.28,0-9.09c0-25.69-.05-62.86-.08-108.79s0-100.62,0-161.34V125.31a20.06,20.06,0,0,0-.83-5.76,17.58,17.58,0,0,0-12.28-11.71,17.06,17.06,0,0,0-2.92-.54c-1-.06-2-.1-3-.08H157.27a17.74,17.74,0,0,0-17.58,15.69c-.19,2.11-.09,4.29-.12,6.44v69.72c0,33.05,0,64.92,0,95.29s0,59.23,0,86.23q0,20.27,0,39.08,0,9.4,0,18.42c0,1.5,0,3,0,4.48l.05,1.1c0,.36.11.72.16,1.09a13.92,13.92,0,0,0,.46,2.13,17.74,17.74,0,0,0,11.31,11.88,20.59,20.59,0,0,0,2,.57c.68.13,1.36.23,2,.31,1.36.1,2.74.1,4.1.09h16l29.22,0,46.8,0,29.57,0,7.69,0,2.63,0-2.63,0-7.69,0-29.57.05-46.8,0-29.22,0h-16c-1.36,0-2.73,0-4.13-.08-.69-.09-1.39-.19-2.08-.32a18.6,18.6,0,0,1-2-.57A18.09,18.09,0,0,1,139.88,447a16.28,16.28,0,0,1-.47-2.18c0-.37-.13-.74-.16-1.11l-.05-1.12c-.06-1.5,0-3,0-4.49V419.67q0-18.8,0-39.08c0-27,0-55.86,0-86.23s0-62.24,0-95.29q0-24.8,0-50.41V129.35c0-2.16-.07-4.3.13-6.5a18.18,18.18,0,0,1,18-16.09H290.19c1,0,2,0,3,.09a19.08,19.08,0,0,1,3,.55,18.53,18.53,0,0,1,5.5,2.51,18.5,18.5,0,0,1,7.08,9.5,20.1,20.1,0,0,1,.85,5.9V137q0,11.66,0,23.05c0,60.72,0,115.41,0,161.34s-.05,83.1-.07,108.79c0,3.21,0,6.24,0,9.09,0,1.42,0,2.8-.08,4.13,0,.67-.18,1.32-.26,1.95s-.31,1.24-.46,1.85a17.72,17.72,0,0,1-3.21,6A18.91,18.91,0,0,1,301.3,457a17.75,17.75,0,0,1-7.16,2.67,13.48,13.48,0,0,1-1.95.17Z" style="fill:#263238"></path><rect x="169.42" y="146.76" width="44.02" height="44.02" rx="3.59" style="fill:#FFBD59"></rect><path d="M180.41,200.71v9.17h-2.19v-3.76h-4.28v3.76h-2.18v-9.17h2.18v3.62h4.28v-3.62Z" style="fill:#263238"></path><path d="M189.55,206.93h-5.48a1.93,1.93,0,0,0,2.07,1.42,2.53,2.53,0,0,0,1.82-.68l1.12,1.18a3.86,3.86,0,0,1-3,1.13c-2.51,0-4.14-1.53-4.14-3.62a3.65,3.65,0,0,1,3.87-3.63,3.54,3.54,0,0,1,3.77,3.65A5.28,5.28,0,0,1,189.55,206.93ZM184,205.74h3.57a1.82,1.82,0,0,0-3.57,0Z" style="fill:#263238"></path><path d="M191,200.16h2.1v9.72H191Z" style="fill:#263238"></path><path d="M195.05,200.16h2.1v9.72h-2.1Z" style="fill:#263238"></path><path d="M198.56,206.36a4,4,0,1,1,4,3.62A3.69,3.69,0,0,1,198.56,206.36Zm5.84,0a1.86,1.86,0,1,0-1.85,1.95A1.8,1.8,0,0,0,204.4,206.36Z" style="fill:#263238"></path><path d="M211.43,208.79a1.3,1.3,0,0,1,2.58,0,1.29,1.29,0,0,1-2.58,0Zm0-8.08H214l-.41,6h-1.67Z" style="fill:#263238"></path><path d="M171.48,247h2.74c2,0,3.42,1.22,3.42,3s-1.38,3.05-3.42,3.05h-2.74Zm2.69,5.14a2.1,2.1,0,1,0,0-4.18h-1.52v4.18Z" style="fill:#263238"></path><path d="M182.78,250.33v2.73h-1.06v-.57a1.72,1.72,0,0,1-1.5.63c-1.1,0-1.79-.58-1.79-1.39s.54-1.39,2-1.39h1.24v-.07c0-.63-.4-1-1.19-1a2.43,2.43,0,0,0-1.45.46l-.44-.79a3.44,3.44,0,0,1,2-.57C182,248.36,182.78,249,182.78,250.33Zm-1.12,1.28v-.54H180.5c-.76,0-1,.27-1,.61s.34.65.91.65A1.22,1.22,0,0,0,181.66,251.61Z" style="fill:#263238"></path><path d="M183.67,252.6l.43-.83a3.26,3.26,0,0,0,1.66.46c.71,0,1-.19,1-.51,0-.89-3-.05-3-1.91,0-.88.82-1.45,2.11-1.45a3.82,3.82,0,0,1,1.79.4l-.43.82a2.7,2.7,0,0,0-1.37-.34c-.68,0-1,.21-1,.52,0,.94,3,.1,3,1.92,0,.88-.83,1.44-2.17,1.44A3.92,3.92,0,0,1,183.67,252.6Z" style="fill:#263238"></path><path d="M193.54,250.39v2.67h-1.12v-2.53c0-.82-.42-1.22-1.14-1.22a1.25,1.25,0,0,0-1.33,1.4v2.35h-1.12V246.6H190V249a2.16,2.16,0,0,1,1.59-.59A1.84,1.84,0,0,1,193.54,250.39Z" style="fill:#263238"></path><path d="M200,250.73a2.3,2.3,0,0,1-2.42,2.39,2,2,0,0,1-1.59-.66v.6H195V246.6h1.12V249a2.06,2.06,0,0,1,1.54-.61A2.29,2.29,0,0,1,200,250.73Zm-1.14,0a1.42,1.42,0,1,0-1.41,1.46A1.37,1.37,0,0,0,198.9,250.73Z" style="fill:#263238"></path><path d="M200.72,250.73a2.55,2.55,0,1,1,2.54,2.39A2.37,2.37,0,0,1,200.72,250.73Zm4,0a1.42,1.42,0,1,0-1.42,1.46A1.37,1.37,0,0,0,204.68,250.73Z" style="fill:#263238"></path><path d="M210.83,250.33v2.73h-1.06v-.57a1.72,1.72,0,0,1-1.5.63c-1.09,0-1.78-.58-1.78-1.39s.53-1.39,2-1.39h1.24v-.07c0-.63-.39-1-1.19-1a2.46,2.46,0,0,0-1.45.46l-.44-.79a3.44,3.44,0,0,1,2-.57C210,248.36,210.83,249,210.83,250.33Zm-1.12,1.28v-.54h-1.15c-.77,0-1,.27-1,.61s.34.65.91.65A1.22,1.22,0,0,0,209.71,251.61Z" style="fill:#263238"></path><path d="M215,248.36v1l-.26,0a1.28,1.28,0,0,0-1.39,1.43v2.26h-1.12v-4.65h1.07v.68A1.9,1.9,0,0,1,215,248.36Z" style="fill:#263238"></path><path d="M220.62,246.6v6.46h-1.07v-.6a2,2,0,0,1-1.59.66,2.38,2.38,0,1,1,0-4.76,2,2,0,0,1,1.54.62V246.6Zm-1.1,4.13a1.43,1.43,0,1,0-1.42,1.46A1.38,1.38,0,0,0,219.52,250.73Z" style="fill:#263238"></path><path d="M178,216.33V214h.44v2.28c0,1,.46,1.38,1.26,1.38s1.27-.43,1.27-1.38V214h.42v2.29a1.7,1.7,0,1,1-3.39,0Z" style="fill:#263238"></path><path d="M182.13,217.7l.19-.32a1.89,1.89,0,0,0,1.1.34c.59,0,.83-.2.83-.5,0-.78-2-.16-2-1.35,0-.49.44-.86,1.23-.86a2.15,2.15,0,0,1,1.09.28l-.18.33a1.58,1.58,0,0,0-.91-.26c-.56,0-.81.21-.81.5,0,.81,2,.2,2,1.35,0,.52-.47.86-1.28.86A2.12,2.12,0,0,1,182.13,217.7Z" style="fill:#263238"></path><path d="M188.13,216.66h-2.59a1.14,1.14,0,0,0,1.22,1.05,1.24,1.24,0,0,0,1-.39l.24.26a1.56,1.56,0,0,1-1.2.49,1.51,1.51,0,0,1-1.62-1.53,1.47,1.47,0,0,1,1.51-1.53,1.45,1.45,0,0,1,1.5,1.53S188.13,216.62,188.13,216.66Zm-2.59-.3h2.2a1.06,1.06,0,0,0-1.1-1A1.07,1.07,0,0,0,185.54,216.36Z" style="fill:#263238"></path><path d="M190.55,215v.4h-.1a1,1,0,0,0-1,1.11V218H189v-3h.4v.59A1.18,1.18,0,0,1,190.55,215Z" style="fill:#263238"></path><path d="M194.15,216.3V218h-.41v-1.7a.85.85,0,0,0-.93-1,1,1,0,0,0-1.09,1.08V218h-.42v-3h.4v.56a1.32,1.32,0,0,1,1.18-.58A1.16,1.16,0,0,1,194.15,216.3Z" style="fill:#263238"></path><path d="M197.63,216.18V218h-.41v-.47a1.16,1.16,0,0,1-1.06.5c-.7,0-1.13-.35-1.13-.87s.3-.86,1.19-.86h1v-.18c0-.51-.3-.79-.88-.79a1.58,1.58,0,0,0-1,.35l-.19-.3a2,2,0,0,1,1.26-.41C197.17,215,197.63,215.4,197.63,216.18Zm-.42,1v-.49h-1c-.6,0-.79.23-.79.53s.29.57.78.57A1,1,0,0,0,197.21,217.14Z" style="fill:#263238"></path><path d="M203.87,216.3V218h-.42v-1.7c0-.64-.33-1-.89-1a1,1,0,0,0-1,1.08V218h-.42v-1.7a.84.84,0,0,0-.9-1,1,1,0,0,0-1,1.08V218h-.42v-3h.4v.55a1.27,1.27,0,0,1,1.14-.57,1.11,1.11,0,0,1,1.1.64,1.35,1.35,0,0,1,1.22-.64A1.15,1.15,0,0,1,203.87,216.3Z" style="fill:#263238"></path><path d="M207.71,216.66h-2.59a1.14,1.14,0,0,0,1.22,1.05,1.27,1.27,0,0,0,.95-.39l.23.26a1.65,1.65,0,0,1-2.82-1,1.47,1.47,0,0,1,1.51-1.53,1.45,1.45,0,0,1,1.51,1.53S207.71,216.62,207.71,216.66Zm-2.59-.3h2.2a1.07,1.07,0,0,0-1.11-1A1.06,1.06,0,0,0,205.12,216.36Z" style="fill:#263238"></path><path d="M171,278.59a3.16,3.16,0,0,1,3.36-3.14,3.22,3.22,0,0,1,2.48,1l-.75.69a2.23,2.23,0,0,0-1.67-.72,2.15,2.15,0,1,0,0,4.29,2.23,2.23,0,0,0,1.67-.72l.75.69a3.23,3.23,0,0,1-2.49,1A3.15,3.15,0,0,1,171,278.59Z" style="fill:#263238"></path><path d="M181.85,278.91v2.73h-1.06v-.57a1.72,1.72,0,0,1-1.5.63c-1.1,0-1.79-.59-1.79-1.4s.54-1.38,2-1.38h1.24v-.07c0-.64-.4-1-1.19-1a2.42,2.42,0,0,0-1.46.46l-.43-.79a3.37,3.37,0,0,1,2-.58C181.05,276.93,181.85,277.57,181.85,278.91Zm-1.12,1.27v-.54h-1.16c-.76,0-1,.28-1,.62s.34.64.92.64A1.23,1.23,0,0,0,180.73,280.18Z" style="fill:#263238"></path><path d="M183.28,275.17h1.12v6.47h-1.12Z" style="fill:#263238"></path><path d="M190.35,279.66H186.6a1.43,1.43,0,0,0,1.55,1.11,1.73,1.73,0,0,0,1.29-.5l.6.67a2.48,2.48,0,0,1-1.92.76,2.41,2.41,0,0,1-2.64-2.39,2.34,2.34,0,0,1,2.47-2.38,2.3,2.3,0,0,1,2.42,2.41C190.37,279.42,190.36,279.55,190.35,279.66Zm-3.76-.73h2.71a1.38,1.38,0,0,0-2.71,0Z" style="fill:#263238"></path><path d="M196.15,279v2.67H195v-2.53c0-.83-.43-1.23-1.14-1.23a1.25,1.25,0,0,0-1.34,1.4v2.36h-1.12V277h1.07v.6a2.14,2.14,0,0,1,1.65-.65A1.84,1.84,0,0,1,196.15,279Z" style="fill:#263238"></path><path d="M202.31,275.17v6.47h-1.07V281a2,2,0,0,1-1.59.67,2.39,2.39,0,1,1,0-4.77,2,2,0,0,1,1.54.63v-2.39Zm-1.1,4.14a1.43,1.43,0,1,0-1.43,1.45A1.38,1.38,0,0,0,201.21,279.31Z" style="fill:#263238"></path><path d="M207.78,278.91v2.73h-1.05v-.57a1.73,1.73,0,0,1-1.51.63c-1.09,0-1.78-.59-1.78-1.4s.54-1.38,2-1.38h1.24v-.07c0-.64-.4-1-1.2-1a2.41,2.41,0,0,0-1.45.46l-.44-.79a3.4,3.4,0,0,1,2-.58C207,276.93,207.78,277.57,207.78,278.91Zm-1.11,1.27v-.54h-1.16c-.76,0-1,.28-1,.62s.34.64.92.64A1.23,1.23,0,0,0,206.67,280.18Z" style="fill:#263238"></path><path d="M212,276.93v1l-.26,0a1.29,1.29,0,0,0-1.39,1.44v2.26h-1.12V277h1.07v.68A1.89,1.89,0,0,1,212,276.93Z" style="fill:#263238"></path><path d="M171,307.73a3.16,3.16,0,0,1,3.36-3.14,3.22,3.22,0,0,1,2.48,1l-.75.69a2.23,2.23,0,0,0-1.67-.72,2.15,2.15,0,1,0,0,4.29,2.23,2.23,0,0,0,1.67-.72l.75.69a3.2,3.2,0,0,1-2.49,1A3.15,3.15,0,0,1,171,307.73Z" style="fill:#263238"></path><path d="M177.31,308.45a2.56,2.56,0,1,1,2.55,2.39A2.39,2.39,0,0,1,177.31,308.45Zm4,0a1.42,1.42,0,1,0-1.42,1.45A1.38,1.38,0,0,0,181.28,308.45Z" style="fill:#263238"></path><path d="M188.2,308.11v2.67h-1.12v-2.53c0-.83-.42-1.23-1.14-1.23a1.25,1.25,0,0,0-1.33,1.4v2.36h-1.12v-4.66h1.06v.6a2.14,2.14,0,0,1,1.65-.65A1.85,1.85,0,0,1,188.2,308.11Z" style="fill:#263238"></path><path d="M192.5,310.52a1.8,1.8,0,0,1-1.08.32,1.45,1.45,0,0,1-1.64-1.57V307H189v-.87h.79V305.1h1.12v1.06h1.28V307H190.9v2.21c0,.46.23.7.66.7a1,1,0,0,0,.63-.19Z" style="fill:#263238"></path><path d="M197.43,308.05v2.73h-1.06v-.57a1.72,1.72,0,0,1-1.5.63c-1.1,0-1.79-.59-1.79-1.4s.54-1.38,2-1.38h1.24V308c0-.64-.4-1-1.19-1a2.37,2.37,0,0,0-1.45.46l-.44-.79a3.37,3.37,0,0,1,2-.58C196.63,306.07,197.43,306.71,197.43,308.05Zm-1.12,1.27v-.54h-1.16c-.76,0-1,.28-1,.62s.34.64.92.64A1.23,1.23,0,0,0,196.31,309.32Z" style="fill:#263238"></path><path d="M198.51,308.45a2.4,2.4,0,0,1,2.59-2.38,2.17,2.17,0,0,1,2,1.08l-.86.49a1.34,1.34,0,0,0-1.19-.65,1.46,1.46,0,0,0,0,2.91,1.35,1.35,0,0,0,1.19-.64l.86.49a2.19,2.19,0,0,1-2,1.09A2.41,2.41,0,0,1,198.51,308.45Z" style="fill:#263238"></path><path d="M207.05,310.52a1.79,1.79,0,0,1-1.07.32,1.45,1.45,0,0,1-1.65-1.57V307h-.79v-.87h.79V305.1h1.12v1.06h1.28V307h-1.28v2.21c0,.46.23.7.66.7a1,1,0,0,0,.63-.19Z" style="fill:#263238"></path><path d="M207.43,310.31l.43-.82a3.26,3.26,0,0,0,1.66.46c.71,0,1-.19,1-.52,0-.88-3-.05-3-1.9,0-.88.82-1.46,2.11-1.46a3.94,3.94,0,0,1,1.79.4l-.43.83a2.71,2.71,0,0,0-1.37-.35c-.68,0-1,.22-1,.52,0,.94,3,.11,3,1.93,0,.87-.82,1.44-2.17,1.44A3.82,3.82,0,0,1,207.43,310.31Z" style="fill:#263238"></path><path d="M171,339.84l.41-.88a3.53,3.53,0,0,0,2.07.67c1,0,1.38-.34,1.38-.79,0-1.32-3.72-.46-3.72-2.72,0-1,.8-1.82,2.52-1.82a4,4,0,0,1,2.09.54l-.37.88a3.46,3.46,0,0,0-1.73-.48c-1,0-1.36.36-1.36.83,0,1.29,3.72.45,3.72,2.69,0,1-.81,1.81-2.53,1.81A4.18,4.18,0,0,1,171,339.84Z" style="fill:#FFBD59"></path><path d="M181.49,338.51h-3.76a1.45,1.45,0,0,0,1.55,1.11,1.74,1.74,0,0,0,1.3-.51l.6.68a2.47,2.47,0,0,1-1.92.75,2.39,2.39,0,0,1-2.64-2.38,2.34,2.34,0,0,1,2.47-2.38,2.3,2.3,0,0,1,2.42,2.4C181.51,338.27,181.5,338.4,181.49,338.51Zm-3.76-.73h2.71a1.38,1.38,0,0,0-2.71,0Z" style="fill:#FFBD59"></path><path d="M185.46,340.23a1.79,1.79,0,0,1-1.08.31,1.45,1.45,0,0,1-1.65-1.56v-2.24H182v-.88h.78V334.8h1.12v1.06h1.28v.88h-1.28V339a.62.62,0,0,0,.67.7,1,1,0,0,0,.62-.2Z" style="fill:#FFBD59"></path><path d="M189.14,340.23a1.78,1.78,0,0,1-1.07.31,1.45,1.45,0,0,1-1.65-1.56v-2.24h-.79v-.88h.79V334.8h1.12v1.06h1.28v.88h-1.28V339a.61.61,0,0,0,.66.7,1,1,0,0,0,.63-.2Z" style="fill:#FFBD59"></path><path d="M189.91,334.41a.67.67,0,0,1,.72-.65.65.65,0,0,1,.71.62.72.72,0,0,1-1.43,0Zm.15,1.42h1.12v4.65h-1.12Z" style="fill:#FFBD59"></path><path d="M197.36,337.82v2.66h-1.12V338c0-.83-.42-1.23-1.13-1.23a1.25,1.25,0,0,0-1.34,1.4v2.35h-1.12v-4.65h1.07v.6a2.1,2.1,0,0,1,1.65-.65A1.84,1.84,0,0,1,197.36,337.82Z" style="fill:#FFBD59"></path><path d="M203.58,335.83v3.95c0,1.69-.9,2.45-2.58,2.45a3.87,3.87,0,0,1-2.33-.66l.5-.82a3,3,0,0,0,1.77.56c1.06,0,1.52-.47,1.52-1.41v-.25a2.12,2.12,0,0,1-1.6.62,2.25,2.25,0,1,1,0-4.49,2.12,2.12,0,0,1,1.66.67v-.62Zm-1.1,2.19a1.46,1.46,0,1,0-1.45,1.33A1.33,1.33,0,0,0,202.48,338Z" style="fill:#FFBD59"></path><path d="M204.51,340l.43-.83a3.26,3.26,0,0,0,1.66.46c.71,0,1-.19,1-.51,0-.89-3-.05-3-1.91,0-.88.81-1.45,2.1-1.45a4,4,0,0,1,1.8.4l-.43.83a2.71,2.71,0,0,0-1.37-.35c-.69,0-1,.22-1,.52,0,.94,3,.11,3,1.93,0,.87-.83,1.43-2.17,1.43A3.82,3.82,0,0,1,204.51,340Z" style="fill:#FFBD59"></path><path d="M175.55,365h-3.14l-.61,1.41h-1.21l2.83-6.1h1.14l2.83,6.1h-1.22Zm-.39-.89L174,361.47l-1.17,2.67Z" style="fill:#263238"></path><path d="M177.65,364.11a2.39,2.39,0,0,1,2.58-2.38,2.18,2.18,0,0,1,2.05,1.08l-.86.49a1.46,1.46,0,1,0,0,1.62l.86.49a2.19,2.19,0,0,1-2.05,1.09A2.4,2.4,0,0,1,177.65,364.11Z" style="fill:#263238"></path><path d="M182.78,364.11a2.39,2.39,0,0,1,2.59-2.38,2.18,2.18,0,0,1,2,1.08l-.86.49a1.46,1.46,0,1,0,0,1.62l.86.49a2.18,2.18,0,0,1-2,1.09A2.4,2.4,0,0,1,182.78,364.11Z" style="fill:#263238"></path><path d="M187.91,364.11a2.56,2.56,0,1,1,2.55,2.39A2.39,2.39,0,0,1,187.91,364.11Zm4,0a1.42,1.42,0,1,0-1.42,1.46A1.37,1.37,0,0,0,191.88,364.11Z" style="fill:#263238"></path><path d="M198.72,361.78v4.66h-1.07v-.6a2,2,0,0,1-1.54.66,1.87,1.87,0,0,1-2.06-2.06v-2.66h1.12v2.51c0,.85.41,1.25,1.12,1.25a1.24,1.24,0,0,0,1.31-1.4v-2.36Z" style="fill:#263238"></path><path d="M204.9,363.77v2.67h-1.12v-2.53c0-.83-.42-1.23-1.14-1.23a1.25,1.25,0,0,0-1.33,1.4v2.36h-1.12v-4.66h1.06v.61a2.11,2.11,0,0,1,1.65-.66A1.85,1.85,0,0,1,204.9,363.77Z" style="fill:#263238"></path><path d="M209.2,366.18a1.79,1.79,0,0,1-1.07.32,1.45,1.45,0,0,1-1.65-1.57v-2.24h-.79v-.87h.79v-1.06h1.12v1.06h1.28v.87H207.6v2.21c0,.46.23.7.66.7a1,1,0,0,0,.63-.19Z" style="fill:#263238"></path><path d="M176.18,399.29v.94h-4.7v-6.09h4.58v.95h-3.41v1.58h3v.93h-3v1.69Z" style="fill:#263238"></path><path d="M180.33,400.23l-1.22-1.61-1.24,1.61h-1.24l1.87-2.36-1.79-2.29H178l1.17,1.53,1.18-1.53h1.21l-1.8,2.28,1.88,2.37Z" style="fill:#263238"></path><path d="M182.27,394.16a.67.67,0,0,1,.72-.65.66.66,0,0,1,.71.63.72.72,0,0,1-1.43,0Zm.15,1.42h1.12v4.65h-1.12Z" style="fill:#263238"></path><path d="M187.89,400a1.82,1.82,0,0,1-1.08.32,1.45,1.45,0,0,1-1.65-1.57v-2.24h-.78v-.87h.78v-1.07h1.12v1.07h1.28v.87h-1.28v2.21a.62.62,0,0,0,.67.7,1,1,0,0,0,.62-.19Z" style="fill:#263238"></path><rect x="139.34" y="325.14" width="2.4" height="22.77" style="fill:#FFBD59"></rect><path d="M191.44,168a4.57,4.57,0,1,1,4.68-4.56A4.62,4.62,0,0,1,191.44,168Zm0-8.13a3.57,3.57,0,1,0,3.68,3.57A3.63,3.63,0,0,0,191.44,159.84Z" style="fill:#fff"></path><path d="M199.52,178.69a.5.5,0,0,1-.5-.5,7.59,7.59,0,0,0-15.17,0,.5.5,0,0,1-1,0,8.59,8.59,0,0,1,17.17,0A.5.5,0,0,1,199.52,178.69Z" style="fill:#fff"></path><rect x="227.62" y="76.64" width="170.1" height="352.91" rx="17.91" style="fill:#fafafa"></rect><path d="M379.81,429.55l.65,0a15.66,15.66,0,0,0,2-.19,17.86,17.86,0,0,0,7.12-2.71,18.47,18.47,0,0,0,4.17-3.77,17.6,17.6,0,0,0,3.17-6c.14-.6.33-1.2.45-1.83s.23-1.27.25-1.93c.09-1.32.07-2.7.07-4.13q0-4.26,0-9.09c0-25.69-.05-62.86-.08-108.78s0-100.62-.05-161.35V95a20.06,20.06,0,0,0-.83-5.76,17.64,17.64,0,0,0-12.28-11.71,19.25,19.25,0,0,0-2.92-.54c-1-.06-2-.1-3-.08H245.55A17.72,17.72,0,0,0,228,92.56c-.19,2.11-.09,4.3-.12,6.45v69.71c0,33.05,0,64.93,0,95.3s0,59.22,0,86.23q0,20.25,0,39.08c0,6.26,0,12.41,0,18.41,0,1.5,0,3,0,4.48l.05,1.1c0,.37.11.73.16,1.09a14.31,14.31,0,0,0,.46,2.14,17.74,17.74,0,0,0,11.31,11.88,20.52,20.52,0,0,0,2,.56c.68.13,1.36.23,2,.32,1.36.09,2.74.09,4.1.08h16l29.22,0,46.8,0,29.57,0,7.69,0c1.74,0,2.63,0,2.63,0s-.89,0-2.63,0l-7.69,0-29.57,0-46.8,0-29.22,0h-16c-1.36,0-2.73,0-4.13-.09-.69-.08-1.39-.18-2.08-.32a18.6,18.6,0,0,1-2-.57,18,18,0,0,1-11.54-12.09,16,16,0,0,1-.47-2.18c-.05-.37-.13-.73-.16-1.11l-.05-1.12c-.06-1.49,0-3,0-4.49V389.33q0-18.81,0-39.08c0-27,0-55.87,0-86.23s0-62.25,0-95.3q0-24.78,0-50.41V99c0-2.16-.07-4.31.13-6.5a18.18,18.18,0,0,1,18-16.1H378.47c1,0,2,0,3,.08a19.1,19.1,0,0,1,3,.56,17.85,17.85,0,0,1,9.83,6.69,18,18,0,0,1,2.75,5.32,20,20,0,0,1,.85,5.89v11.73q0,11.67,0,23.05c0,60.73,0,115.42-.05,161.35s-.05,83.09-.07,108.78c0,3.22,0,6.25,0,9.09,0,1.43,0,2.8-.08,4.14,0,.67-.18,1.31-.26,1.95s-.31,1.24-.46,1.84a17.63,17.63,0,0,1-3.21,6,18.66,18.66,0,0,1-4.21,3.78,17.6,17.6,0,0,1-7.16,2.67,13.48,13.48,0,0,1-1.95.17Z" style="fill:#263238"></path><path d="M390.1,181c0,.12-35,.23-78.17.23s-78.18-.11-78.18-.23,35-.23,78.18-.23S390.1,180.85,390.1,181Z" style="fill:#e0e0e0"></path><path d="M378.13,168.92H367.22a6.37,6.37,0,0,1,0-12.74h10.91a6.37,6.37,0,1,1,0,12.74Zm-10.91-11.86a5.49,5.49,0,0,0,0,11h10.91a5.49,5.49,0,0,0,0-11Z" style="fill:#FFBD59"></path><path d="M367.16,167a4.3,4.3,0,1,1,4.29-4.29A4.3,4.3,0,0,1,367.16,167Zm0-7.7a3.41,3.41,0,1,0,3.41,3.41A3.42,3.42,0,0,0,367.16,159.27Z" style="fill:#FFBD59"></path><path d="M390.1,217.72c0,.13-35,.23-78.17.23s-78.18-.1-78.18-.23,35-.23,78.18-.23S390.1,217.59,390.1,217.72Z" style="fill:#e0e0e0"></path><rect x="361.29" y="194.46" width="22.76" height="11.85" rx="5.77" style="fill:#FFBD59"></rect><path d="M382.14,200.51a3.86,3.86,0,1,1-3.86-3.85A3.86,3.86,0,0,1,382.14,200.51Z" style="fill:#fff"></path><path d="M378.13,245.78H367.22a5.93,5.93,0,0,1-5.93-5.93h0a5.93,5.93,0,0,1,5.93-5.92h10.91a5.92,5.92,0,0,1,5.92,5.92h0A5.92,5.92,0,0,1,378.13,245.78Z" style="fill:#FFBD59"></path><path d="M382.14,240a3.86,3.86,0,1,1-3.86-3.85A3.86,3.86,0,0,1,382.14,240Z" style="fill:#fff"></path><path d="M390.1,254.82c0,.13-35,.23-78.17.23s-78.18-.1-78.18-.23,35-.23,78.18-.23S390.1,254.7,390.1,254.82Z" style="fill:#e0e0e0"></path><path d="M378.13,280H367.22a6.37,6.37,0,1,1,0-12.73h10.91a6.37,6.37,0,1,1,0,12.73Zm-10.91-11.85a5.49,5.49,0,1,0,0,11h10.91a5.49,5.49,0,0,0,0-11Z" style="fill:#FFBD59"></path><path d="M367.16,278.07a4.3,4.3,0,1,1,4.29-4.3A4.31,4.31,0,0,1,367.16,278.07Zm0-7.71a3.41,3.41,0,1,0,3.41,3.41A3.42,3.42,0,0,0,367.16,270.36Z" style="fill:#FFBD59"></path><path d="M390.1,291.58c0,.13-35,.23-78.17.23s-78.18-.1-78.18-.23,35-.23,78.18-.23S390.1,291.45,390.1,291.58Z" style="fill:#e0e0e0"></path><path d="M349,314.41v.73h-4.27v-5.89h4.15V310h-3.31v1.81h2.95v.72h-2.95v1.9Z" style="fill:#e0e0e0"></path><path d="M354.45,312.57v2.57h-.81v-2.47c0-.88-.43-1.31-1.2-1.31a1.32,1.32,0,0,0-1.41,1.48v2.3h-.81v-4.46H351v.67a1.9,1.9,0,0,1,1.6-.71A1.72,1.72,0,0,1,354.45,312.57Z" style="fill:#e0e0e0"></path><path d="M360.24,310.68v3.85a2,2,0,0,1-2.32,2.29,3.36,3.36,0,0,1-2.13-.66l.39-.63a2.69,2.69,0,0,0,1.72.59c1.05,0,1.53-.49,1.53-1.5v-.36a2,2,0,0,1-1.61.69,2.16,2.16,0,1,1,0-4.31,2,2,0,0,1,1.65.73v-.69Zm-.8,2.11a1.54,1.54,0,0,0-3.07,0,1.54,1.54,0,0,0,3.07,0Z" style="fill:#e0e0e0"></path><path d="M361.77,308.9h.81v6.24h-.81Z" style="fill:#e0e0e0"></path><path d="M364,309.3a.54.54,0,0,1,.55-.53.53.53,0,1,1-.55.53Zm.15,1.38h.8v4.46h-.8Z" style="fill:#e0e0e0"></path><path d="M365.9,314.67l.33-.64a2.88,2.88,0,0,0,1.57.46c.75,0,1.06-.23,1.06-.6,0-1-2.82-.14-2.82-1.91,0-.8.72-1.34,1.86-1.34a3.24,3.24,0,0,1,1.62.4l-.34.64a2.35,2.35,0,0,0-1.29-.35c-.7,0-1.05.26-1.05.61,0,1.05,2.83.2,2.83,1.93,0,.81-.74,1.32-1.93,1.32A3.24,3.24,0,0,1,365.9,314.67Z" style="fill:#e0e0e0"></path><path d="M374.9,312.57v2.57h-.8v-2.47c0-.88-.44-1.31-1.21-1.31a1.33,1.33,0,0,0-1.41,1.48v2.3h-.81V308.9h.81v2.41a1.93,1.93,0,0,1,1.57-.67A1.72,1.72,0,0,1,374.9,312.57Z" style="fill:#e0e0e0"></path><path d="M383.62,315.9a.56.56,0,0,1-.38-1l1.33-1.26-1.35-1.42a.57.57,0,0,1,0-.8.58.58,0,0,1,.8,0l1.74,1.83a.57.57,0,0,1,.16.41.55.55,0,0,1-.18.39L384,315.74A.51.51,0,0,1,383.62,315.9Z" style="fill:#FFBD59"></path><path d="M309.51,400.54a3.59,3.59,0,0,0,.45-.07,2.27,2.27,0,0,0,1.15-.67,2.21,2.21,0,0,0,.48-.84,3.5,3.5,0,0,0,.09-1.19c0-.88,0-1.89,0-3,0-2.29,0-5.08,0-8.31v-2.52c0-.43,0-.87,0-1.31a2.68,2.68,0,0,0-.19-1.27,2.15,2.15,0,0,0-2.18-1.22h-3l-63.73.06a2.05,2.05,0,0,0-1.74,1,2,2,0,0,0-.28,1v5.73q0,4.55,0,8.95v1.1a2.68,2.68,0,0,0,.11,1,2,2,0,0,0,1.36,1.3,3.63,3.63,0,0,0,1,.08h11.48l28.66.05,19.31.07,5.26.05,1.36,0,.47,0-.47,0-1.36,0-5.26,0-19.31.07-28.66.05H243a4,4,0,0,1-1.13-.09,2.49,2.49,0,0,1-1.67-1.58,3.34,3.34,0,0,1-.13-1.15V382.15a2.36,2.36,0,0,1,.35-1.21,2.47,2.47,0,0,1,2.13-1.22l63.73.07h3a2.45,2.45,0,0,1,2.44,1.41,2.84,2.84,0,0,1,.21,1.39v1.31c0,.87,0,1.71,0,2.52,0,3.23,0,6,0,8.31,0,1.14,0,2.15,0,3a3.7,3.7,0,0,1-.12,1.22,2.28,2.28,0,0,1-1.73,1.53A1.46,1.46,0,0,1,309.51,400.54Z" style="fill:#263238"></path><path d="M265.75,390.4a2.21,2.21,0,0,1,2.31-2.23,2.15,2.15,0,0,1,1.66.68l-.4.39a1.68,1.68,0,1,0,0,2.32l.4.39a2.16,2.16,0,0,1-1.66.69A2.22,2.22,0,0,1,265.75,390.4Z" style="fill:#263238"></path><path d="M273.11,390.59v2h-.57v-.44a1.22,1.22,0,0,1-1.08.47c-.75,0-1.23-.4-1.23-1s.35-1,1.33-1h.95v-.11c0-.51-.29-.8-.89-.8a1.63,1.63,0,0,0-1,.35l-.25-.45a2.2,2.2,0,0,1,1.36-.42C272.6,389.25,273.11,389.69,273.11,390.59Zm-.6,1v-.47h-.92c-.6,0-.76.23-.76.52s.27.53.73.53A1,1,0,0,0,272.51,391.58Z" style="fill:#263238"></path><path d="M277.36,390.68v1.91h-.6v-1.84c0-.65-.32-1-.89-1a1,1,0,0,0-1.05,1.09v1.71h-.6v-3.31h.58v.5a1.39,1.39,0,0,1,1.19-.53A1.28,1.28,0,0,1,277.36,390.68Z" style="fill:#263238"></path><path d="M278.19,390.93a1.65,1.65,0,0,1,1.75-1.68,1.46,1.46,0,0,1,1.34.7l-.45.3a1,1,0,0,0-.9-.48,1.17,1.17,0,0,0,0,2.33,1.05,1.05,0,0,0,.9-.47l.45.28a1.47,1.47,0,0,1-1.34.71A1.65,1.65,0,0,1,278.19,390.93Z" style="fill:#263238"></path><path d="M285,391.13H282.3a1.13,1.13,0,0,0,1.2,1,1.25,1.25,0,0,0,1-.4l.33.39a1.81,1.81,0,0,1-3.09-1.16,1.62,1.62,0,0,1,1.66-1.68A1.59,1.59,0,0,1,285,391C285,391,285,391.08,285,391.13Zm-2.69-.43h2.12a1.07,1.07,0,0,0-2.12,0Z" style="fill:#263238"></path><path d="M285.83,388h.6v4.63h-.6Z" style="fill:#263238"></path><path d="M257.75,114.48l.46-1a3.92,3.92,0,0,0,2.35.78c1.11,0,1.58-.39,1.58-.92,0-1.54-4.24-.53-4.24-3.18,0-1.15.92-2.13,2.87-2.13a4.46,4.46,0,0,1,2.37.64l-.41,1a4.08,4.08,0,0,0-2-.56c-1.1,0-1.55.43-1.55,1,0,1.52,4.23.53,4.23,3.15,0,1.14-.93,2.11-2.88,2.11A4.58,4.58,0,0,1,257.75,114.48Z" style="fill:#FFBD59"></path><path d="M269.72,112.92h-4.26a1.64,1.64,0,0,0,1.76,1.3,1.91,1.91,0,0,0,1.47-.59l.68.79a2.73,2.73,0,0,1-2.18.88,2.76,2.76,0,0,1-3-2.79,2.71,2.71,0,0,1,2.81-2.78,2.65,2.65,0,0,1,2.75,2.81C269.74,112.65,269.73,112.8,269.72,112.92Zm-4.28-.84h3.09a1.48,1.48,0,0,0-1.54-1.33A1.51,1.51,0,0,0,265.44,112.08Z" style="fill:#FFBD59"></path><path d="M274.23,114.94a2,2,0,0,1-1.22.36,1.67,1.67,0,0,1-1.87-1.83v-2.62h-.9v-1h.9V108.6h1.27v1.24h1.45v1h-1.45v2.59c0,.53.26.81.75.81a1.13,1.13,0,0,0,.71-.22Z" style="fill:#FFBD59"></path><path d="M278.41,114.94a2,2,0,0,1-1.22.36,1.67,1.67,0,0,1-1.87-1.83v-2.62h-.89v-1h.89V108.6h1.27v1.24h1.46v1h-1.46v2.59a.71.71,0,0,0,.76.81,1.17,1.17,0,0,0,.71-.22Z" style="fill:#FFBD59"></path><path d="M279.29,108.14a.78.78,0,0,1,.82-.77.76.76,0,0,1,.81.74.82.82,0,0,1-1.63,0Zm.17,1.66h1.28v5.43h-1.28Z" style="fill:#FFBD59"></path><path d="M287.76,112.12v3.11h-1.27v-3c0-1-.48-1.44-1.3-1.44a1.44,1.44,0,0,0-1.51,1.64v2.75h-1.27V109.8h1.21v.7a2.35,2.35,0,0,1,1.87-.77A2.13,2.13,0,0,1,287.76,112.12Z" style="fill:#FFBD59"></path><path d="M294.83,109.8v4.61c0,2-1,2.87-2.93,2.87a4.32,4.32,0,0,1-2.65-.78l.57-1a3.32,3.32,0,0,0,2,.65c1.21,0,1.73-.55,1.73-1.65v-.29a2.38,2.38,0,0,1-1.82.73,2.63,2.63,0,1,1,0-5.26,2.33,2.33,0,0,1,1.88.79v-.72Zm-1.26,2.55a1.65,1.65,0,0,0-3.3,0,1.65,1.65,0,0,0,3.3,0Z" style="fill:#FFBD59"></path><path d="M295.88,114.69l.48-1a3.65,3.65,0,0,0,1.9.54c.8,0,1.14-.22,1.14-.6,0-1-3.36-.06-3.36-2.23,0-1,.93-1.7,2.39-1.7a4.42,4.42,0,0,1,2,.47l-.49,1a3,3,0,0,0-1.56-.41c-.77,0-1.14.26-1.14.61,0,1.1,3.36.13,3.36,2.25,0,1-.94,1.68-2.46,1.68A4.25,4.25,0,0,1,295.88,114.69Z" style="fill:#FFBD59"></path><path d="M310.13,115.23a.52.52,0,0,1-.33-.11.56.56,0,0,1-.22-.54l.31-2a.15.15,0,0,0,0-.12l-1.41-1.41a.55.55,0,0,1-.14-.57.58.58,0,0,1,.45-.39l2-.31a.15.15,0,0,0,.11-.08l.91-1.78a.58.58,0,0,1,1,0l.91,1.78a.16.16,0,0,0,.1.08l2,.31a.57.57,0,0,1,.31,1l-1.42,1.41a.19.19,0,0,0,0,.12l.32,2a.56.56,0,0,1-.23.54.53.53,0,0,1-.58,0l-1.79-.91a.15.15,0,0,0-.13,0l-1.78.91A.58.58,0,0,1,310.13,115.23Zm2.11-1.4a.57.57,0,0,1,.25.06l1.79.9a.11.11,0,0,0,.14,0,.13.13,0,0,0,.06-.13l-.31-2a.56.56,0,0,1,.16-.49l1.41-1.41a.14.14,0,0,0,0-.14.13.13,0,0,0-.11-.1l-2-.31a.57.57,0,0,1-.42-.3l-.91-1.79h0a.14.14,0,0,0-.12-.07.16.16,0,0,0-.13.07l-.91,1.79a.56.56,0,0,1-.41.3l-2,.31a.14.14,0,0,0-.11.1.13.13,0,0,0,0,.14l1.41,1.42a.53.53,0,0,1,.16.48l-.31,2a.12.12,0,0,0,.05.13.13.13,0,0,0,.15,0l1.78-.9A.58.58,0,0,1,312.24,113.83Z" style="fill:#FFBD59"></path><path d="M251.74,115.73a.46.46,0,0,1-.33-.13l-3.14-2.78a.5.5,0,0,1-.17-.38.48.48,0,0,1,.17-.37l3.14-2.79a.5.5,0,0,1,.66.75l-2.72,2.41,2.72,2.42a.48.48,0,0,1,0,.7A.5.5,0,0,1,251.74,115.73Z" style="fill:#FFBD59"></path><path d="M251.19,160v6.1h-.55l-4-5v5H246V160h.54l4,4.95V160Z" style="fill:#263238"></path><path d="M252.62,163.8a2.4,2.4,0,1,1,2.4,2.33A2.29,2.29,0,0,1,252.62,163.8Zm4.15,0a1.75,1.75,0,1,0-1.75,1.78A1.7,1.7,0,0,0,256.77,163.8Z" style="fill:#263238"></path><path d="M261.2,165.81a1.56,1.56,0,0,1-1,.32,1.24,1.24,0,0,1-1.38-1.33V162H258v-.52h.84v-1h.64v1h1.43V162h-1.43v2.74a.73.73,0,0,0,.81.83,1.11,1.11,0,0,0,.7-.23Z" style="fill:#263238"></path><path d="M262.21,160.06a.45.45,0,0,1,.46-.44.44.44,0,1,1,0,.88A.45.45,0,0,1,262.21,160.06Zm.14,1.45H263v4.58h-.64Z" style="fill:#263238"></path><path d="M266.29,159.58a1.52,1.52,0,0,1,.94.29l-.21.46a1.09,1.09,0,0,0-.7-.23.76.76,0,0,0-.83.87v.54h1.45V162h-1.43v4.06h-.64V162H264v-.52h.84v-.57A1.28,1.28,0,0,1,266.29,159.58Zm3,.47a.44.44,0,0,1-.46.45.44.44,0,1,1,0-.88A.45.45,0,0,1,269.3,160.05Zm-.78,1.46h.63v4.58h-.63Z" style="fill:#263238"></path><path d="M270.45,163.8a2.29,2.29,0,0,1,2.43-2.33,2.06,2.06,0,0,1,1.84.91l-.47.31a1.61,1.61,0,0,0-1.37-.68,1.79,1.79,0,0,0,0,3.57,1.6,1.6,0,0,0,1.37-.67l.47.32a2.08,2.08,0,0,1-1.84.9A2.29,2.29,0,0,1,270.45,163.8Z" style="fill:#263238"></path><path d="M279.53,163.25v2.84h-.61v-.72a1.78,1.78,0,0,1-1.62.76c-1.07,0-1.72-.54-1.72-1.33s.46-1.3,1.81-1.3h1.5v-.28c0-.78-.46-1.21-1.33-1.21a2.44,2.44,0,0,0-1.57.54l-.29-.46a3.07,3.07,0,0,1,1.92-.62C278.84,161.47,279.53,162.06,279.53,163.25Zm-.64,1.46V164h-1.48c-.91,0-1.21.35-1.21.82s.44.86,1.19.86A1.51,1.51,0,0,0,278.89,164.71Z" style="fill:#263238"></path><path d="M283.74,165.81a1.54,1.54,0,0,1-1,.32,1.24,1.24,0,0,1-1.38-1.33V162h-.84v-.52h.84v-1H282v1h1.43V162H282v2.74a.74.74,0,0,0,.82.83,1.1,1.1,0,0,0,.69-.23Z" style="fill:#263238"></path><path d="M284.75,160.06a.46.46,0,0,1,.47-.44.44.44,0,1,1,0,.88A.46.46,0,0,1,284.75,160.06Zm.14,1.45h.64v4.58h-.64Z" style="fill:#263238"></path><path d="M286.83,163.8a2.4,2.4,0,1,1,2.4,2.33A2.29,2.29,0,0,1,286.83,163.8Zm4.15,0a1.76,1.76,0,1,0-1.75,1.78A1.7,1.7,0,0,0,291,163.8Z" style="fill:#263238"></path><path d="M297.26,163.43v2.66h-.64v-2.6a1.3,1.3,0,0,0-1.41-1.46,1.52,1.52,0,0,0-1.65,1.65v2.41h-.64v-4.58h.61v.84a2,2,0,0,1,1.79-.88A1.78,1.78,0,0,1,297.26,163.43Z" style="fill:#263238"></path><path d="M298.33,165.57l.29-.49a2.88,2.88,0,0,0,1.67.51c.9,0,1.27-.29,1.27-.75,0-1.19-3.06-.25-3.06-2.06,0-.75.67-1.31,1.87-1.31a3.24,3.24,0,0,1,1.66.43l-.28.49a2.51,2.51,0,0,0-1.38-.39c-.85,0-1.23.33-1.23.76,0,1.24,3.05.31,3.05,2.07,0,.79-.71,1.3-1.94,1.3A3.25,3.25,0,0,1,298.33,165.57Z" style="fill:#263238"></path><path d="M245.89,203.71v-3.5h.67v3.47c0,1.45.7,2.11,1.91,2.11s1.93-.66,1.93-2.11v-3.47H251v3.5a2.58,2.58,0,1,1-5.15,0Z" style="fill:#263238"></path><path d="M257.68,204a2.25,2.25,0,0,1-2.34,2.34,2.1,2.1,0,0,1-1.8-.91V208h-.63v-6.27h.61v.91a2.06,2.06,0,0,1,1.82-.94A2.24,2.24,0,0,1,257.68,204Zm-.63,0a1.76,1.76,0,1,0-1.76,1.79A1.71,1.71,0,0,0,257.05,204Z" style="fill:#263238"></path><path d="M263.35,201.73v4c0,1.57-.8,2.29-2.36,2.29a3.39,3.39,0,0,1-2.2-.71l.33-.47a2.87,2.87,0,0,0,1.85.63c1.19,0,1.74-.53,1.74-1.67v-.58a2.15,2.15,0,0,1-1.84.89,2.22,2.22,0,1,1,0-4.44,2.16,2.16,0,0,1,1.87.91v-.88Zm-.62,2.18a1.79,1.79,0,1,0-1.79,1.68A1.67,1.67,0,0,0,262.73,203.91Z" style="fill:#263238"></path><path d="M267.5,201.7v.6h-.15a1.5,1.5,0,0,0-1.58,1.69v2.33h-.64v-4.58h.61v.9A1.77,1.77,0,0,1,267.5,201.7Z" style="fill:#263238"></path><path d="M272.2,203.47v2.84h-.61v-.71a1.79,1.79,0,0,1-1.62.76c-1.07,0-1.72-.54-1.72-1.34s.46-1.29,1.82-1.29h1.49v-.28c0-.79-.46-1.21-1.33-1.21a2.44,2.44,0,0,0-1.57.54l-.29-.47a3.08,3.08,0,0,1,1.92-.61C271.51,201.7,272.2,202.29,272.2,203.47Zm-.64,1.47v-.75h-1.48c-.91,0-1.21.35-1.21.82s.44.86,1.2.86A1.51,1.51,0,0,0,271.56,204.94Z" style="fill:#263238"></path><path d="M278.25,199.85v6.46h-.61v-.9a2.06,2.06,0,0,1-1.82,1,2.33,2.33,0,1,1,0-4.66,2.07,2.07,0,0,1,1.79.9v-2.75Zm-.63,4.17a1.75,1.75,0,1,0-1.75,1.79A1.69,1.69,0,0,0,277.62,204Z" style="fill:#263238"></path><path d="M284.12,204.21h-3.94a1.73,1.73,0,0,0,1.86,1.6,1.89,1.89,0,0,0,1.44-.6l.36.4a2.37,2.37,0,0,1-1.82.75,2.3,2.3,0,0,1-2.47-2.34,2.29,2.29,0,1,1,4.58,0S284.12,204.14,284.12,204.21Zm-3.94-.46h3.34a1.68,1.68,0,0,0-3.34,0Z" style="fill:#263238"></path><path d="M252.46,239.68v6.1h-.64V240.9L249.36,245h-.31l-2.47-4.08v4.85H246v-6.1h.54l2.73,4.52,2.69-4.52Z" style="fill:#263238"></path><path d="M258.47,243.68h-3.94a1.73,1.73,0,0,0,1.85,1.6,1.89,1.89,0,0,0,1.45-.6l.35.4a2.36,2.36,0,0,1-1.81.75,2.31,2.31,0,0,1-2.48-2.34,2.24,2.24,0,0,1,2.31-2.33,2.21,2.21,0,0,1,2.28,2.33S258.47,243.61,258.47,243.68Zm-3.94-.46h3.34a1.68,1.68,0,0,0-3.34,0Z" style="fill:#263238"></path><path d="M259.13,245.26l.28-.49a2.91,2.91,0,0,0,1.68.51c.89,0,1.26-.29,1.26-.74,0-1.2-3.05-.26-3.05-2.07,0-.75.66-1.31,1.86-1.31a3.3,3.3,0,0,1,1.67.43l-.28.5a2.46,2.46,0,0,0-1.39-.39c-.85,0-1.23.32-1.23.75,0,1.24,3.06.31,3.06,2.07,0,.79-.72,1.31-1.95,1.31A3.19,3.19,0,0,1,259.13,245.26Z" style="fill:#263238"></path><path d="M263.51,245.26l.28-.49a2.91,2.91,0,0,0,1.68.51c.89,0,1.26-.29,1.26-.74,0-1.2-3.05-.26-3.05-2.07,0-.75.66-1.31,1.86-1.31a3.3,3.3,0,0,1,1.67.43l-.28.5a2.44,2.44,0,0,0-1.39-.39c-.85,0-1.23.32-1.23.75,0,1.24,3.06.31,3.06,2.07,0,.79-.72,1.31-1.95,1.31A3.21,3.21,0,0,1,263.51,245.26Z" style="fill:#263238"></path><path d="M272.1,242.94v2.84h-.61v-.71a1.79,1.79,0,0,1-1.62.76c-1.07,0-1.72-.55-1.72-1.34s.46-1.3,1.82-1.3h1.49v-.28c0-.78-.45-1.21-1.33-1.21a2.46,2.46,0,0,0-1.57.54l-.29-.46a3.09,3.09,0,0,1,1.92-.62C271.41,241.16,272.1,241.76,272.1,242.94Zm-.64,1.47v-.75H270c-.91,0-1.2.34-1.2.81s.43.87,1.19.87A1.51,1.51,0,0,0,271.46,244.41Z" style="fill:#263238"></path><path d="M278.21,241.2v4c0,1.58-.8,2.3-2.36,2.3a3.35,3.35,0,0,1-2.19-.71l.32-.47a2.88,2.88,0,0,0,1.86.63c1.19,0,1.73-.54,1.73-1.67v-.58a2.13,2.13,0,0,1-1.83.89,2.23,2.23,0,1,1,0-4.45,2.14,2.14,0,0,1,1.86.92v-.88Zm-.62,2.18a1.79,1.79,0,1,0-1.79,1.68A1.66,1.66,0,0,0,277.59,243.38Z" style="fill:#263238"></path><path d="M284.1,243.68h-4a1.74,1.74,0,0,0,1.86,1.6,1.89,1.89,0,0,0,1.44-.6l.36.4a2.39,2.39,0,0,1-1.82.75,2.3,2.3,0,0,1-2.47-2.34,2.24,2.24,0,0,1,2.3-2.33,2.21,2.21,0,0,1,2.28,2.33Zm-4-.46h3.34a1.68,1.68,0,0,0-3.34,0Z" style="fill:#263238"></path><path d="M284.75,245.26l.29-.49a2.86,2.86,0,0,0,1.67.51c.9,0,1.26-.29,1.26-.74,0-1.2-3.05-.26-3.05-2.07,0-.75.66-1.31,1.86-1.31a3.28,3.28,0,0,1,1.67.43l-.28.5a2.44,2.44,0,0,0-1.39-.39c-.85,0-1.22.32-1.22.75,0,1.24,3.05.31,3.05,2.07,0,.79-.72,1.31-1.94,1.31A3.24,3.24,0,0,1,284.75,245.26Z" style="fill:#263238"></path><path d="M246,273.67h2.55a3.06,3.06,0,1,1,0,6.1H246Zm2.51,5.54a2.51,2.51,0,1,0,0-5h-1.85v5Z" style="fill:#263238"></path><path d="M252.74,277.47a2.4,2.4,0,1,1,2.4,2.34A2.29,2.29,0,0,1,252.74,277.47Zm4.15,0a1.76,1.76,0,1,0-1.75,1.79A1.69,1.69,0,0,0,256.89,277.47Z" style="fill:#263238"></path><path d="M258.36,277.47a2.29,2.29,0,0,1,2.42-2.32,2.08,2.08,0,0,1,1.85.9l-.48.32a1.61,1.61,0,0,0-1.37-.68,1.79,1.79,0,0,0,0,3.57,1.6,1.6,0,0,0,1.37-.67l.48.31a2.09,2.09,0,0,1-1.85.91A2.3,2.3,0,0,1,258.36,277.47Z" style="fill:#263238"></path><path d="M268.12,275.18v4.59h-.61v-.84a1.88,1.88,0,0,1-1.69.88,1.8,1.8,0,0,1-2-2v-2.66h.64v2.6a1.29,1.29,0,0,0,1.41,1.47,1.5,1.5,0,0,0,1.6-1.66v-2.41Z" style="fill:#263238"></path><path d="M277.68,277.11v2.66H277v-2.6c0-1-.5-1.46-1.35-1.46a1.49,1.49,0,0,0-1.58,1.65v2.41h-.63v-2.6c0-1-.5-1.46-1.36-1.46a1.5,1.5,0,0,0-1.58,1.65v2.41h-.64v-4.59h.61V276a1.93,1.93,0,0,1,1.73-.87,1.7,1.7,0,0,1,1.68,1,2,2,0,0,1,1.86-1A1.75,1.75,0,0,1,277.68,277.11Z" style="fill:#263238"></path><path d="M283.53,277.67h-3.94a1.72,1.72,0,0,0,1.85,1.59,1.89,1.89,0,0,0,1.45-.6l.35.4a2.51,2.51,0,0,1-4.29-1.59,2.24,2.24,0,0,1,2.31-2.32,2.21,2.21,0,0,1,2.28,2.32C283.54,277.53,283.53,277.6,283.53,277.67Zm-3.94-.47h3.34a1.68,1.68,0,0,0-3.34,0Z" style="fill:#263238"></path><path d="M289.17,277.11v2.66h-.63v-2.6a1.29,1.29,0,0,0-1.42-1.46,1.52,1.52,0,0,0-1.64,1.65v2.41h-.64v-4.59h.61V276a2,2,0,0,1,1.79-.88A1.77,1.77,0,0,1,289.17,277.11Z" style="fill:#263238"></path><path d="M293.39,279.49a1.54,1.54,0,0,1-1,.32,1.24,1.24,0,0,1-1.38-1.33v-2.77h-.84v-.53H291v-1h.64v1h1.43v.53h-1.43v2.73a.75.75,0,0,0,.81.84,1.06,1.06,0,0,0,.7-.24Z" style="fill:#263238"></path><path d="M293.89,279.24l.29-.48a2.93,2.93,0,0,0,1.67.51c.9,0,1.26-.3,1.26-.75,0-1.19-3.05-.25-3.05-2.06,0-.75.66-1.31,1.86-1.31a3.21,3.21,0,0,1,1.67.43l-.28.49a2.44,2.44,0,0,0-1.39-.39c-.85,0-1.23.32-1.23.76,0,1.24,3.06.3,3.06,2.06,0,.8-.72,1.31-1.94,1.31A3.15,3.15,0,0,1,293.89,279.24Z" style="fill:#263238"></path><path d="M246,309.67h.66v5.54h3.51v.56H246Z" style="fill:#263238"></path><path d="M254.66,312.93v2.84h-.6v-.72a1.81,1.81,0,0,1-1.63.76c-1.06,0-1.72-.54-1.72-1.33s.47-1.3,1.82-1.3H254v-.28c0-.78-.46-1.21-1.34-1.21a2.41,2.41,0,0,0-1.56.54l-.29-.46a3,3,0,0,1,1.92-.62C254,311.15,254.66,311.74,254.66,312.93Zm-.63,1.46v-.75h-1.48c-.91,0-1.21.35-1.21.82s.44.86,1.19.86A1.51,1.51,0,0,0,254,314.39Z" style="fill:#263238"></path><path d="M260.73,313.11v2.66h-.64v-2.6a1.3,1.3,0,0,0-1.41-1.46,1.52,1.52,0,0,0-1.65,1.65v2.41h-.64v-4.58H257V312a2,2,0,0,1,1.79-.88A1.78,1.78,0,0,1,260.73,313.11Z" style="fill:#263238"></path><path d="M266.84,311.19v4c0,1.58-.8,2.29-2.36,2.29a3.34,3.34,0,0,1-2.19-.7l.32-.47a2.87,2.87,0,0,0,1.86.62c1.19,0,1.73-.53,1.73-1.66v-.58a2.13,2.13,0,0,1-1.83.89,2.23,2.23,0,1,1,0-4.45,2.15,2.15,0,0,1,1.86.92v-.88Zm-.62,2.17a1.79,1.79,0,1,0-1.79,1.69A1.66,1.66,0,0,0,266.22,313.36Z" style="fill:#263238"></path><path d="M272.87,311.19v4.58h-.61v-.84a1.88,1.88,0,0,1-1.69.88,1.8,1.8,0,0,1-2-2v-2.65h.63v2.59a1.3,1.3,0,0,0,1.42,1.48,1.51,1.51,0,0,0,1.6-1.67v-2.4Z" style="fill:#263238"></path><path d="M278.21,312.93v2.84h-.61v-.72a1.79,1.79,0,0,1-1.62.76c-1.07,0-1.72-.54-1.72-1.33s.46-1.3,1.82-1.3h1.49v-.28c0-.78-.45-1.21-1.33-1.21a2.46,2.46,0,0,0-1.57.54l-.29-.46a3.09,3.09,0,0,1,1.92-.62C277.52,311.15,278.21,311.74,278.21,312.93Zm-.64,1.46v-.75H276.1c-.92,0-1.21.35-1.21.82s.43.86,1.19.86A1.51,1.51,0,0,0,277.57,314.39Z" style="fill:#263238"></path><path d="M284.32,311.19v4c0,1.58-.8,2.29-2.36,2.29a3.34,3.34,0,0,1-2.19-.7l.32-.47a2.86,2.86,0,0,0,1.85.62c1.2,0,1.74-.53,1.74-1.66v-.58a2.13,2.13,0,0,1-1.83.89,2.23,2.23,0,1,1,0-4.45,2.15,2.15,0,0,1,1.86.92v-.88Zm-.62,2.17a1.79,1.79,0,1,0-1.79,1.69A1.66,1.66,0,0,0,283.7,313.36Z" style="fill:#263238"></path><path d="M290.21,313.67h-3.95a1.73,1.73,0,0,0,1.86,1.59,1.89,1.89,0,0,0,1.44-.6l.36.4a2.35,2.35,0,0,1-1.82.75,2.3,2.3,0,0,1-2.47-2.33,2.24,2.24,0,0,1,2.3-2.33,2.21,2.21,0,0,1,2.28,2.33Zm-3.95-.46h3.35a1.68,1.68,0,0,0-3.35,0Z" style="fill:#263238"></path><path d="M383.65,342.87c0,.15-31.27.26-69.83.26S244,343,244,342.87s31.26-.26,69.84-.26S383.65,342.73,383.65,342.87Z" style="fill:#e0e0e0"></path><path d="M322.43,355.11a4.1,4.1,0,0,1-.8.06l-2.28.05-8.41.08-27.73.08-27.74-.08-8.4-.08-2.29-.05a4.23,4.23,0,0,1-.8-.06,7.29,7.29,0,0,1,.8-.05l2.29-.05,8.4-.08,27.74-.08,27.73.08,8.41.08,2.28.05A7,7,0,0,1,322.43,355.11Z" style="fill:#e0e0e0"></path><rect x="316.11" y="379.95" width="71.49" height="20.59" rx="2.25" style="fill:#FFBD59"></rect><path d="M344.2,392.3l.27-.55a2.7,2.7,0,0,0,1.69.57c.89,0,1.27-.33,1.27-.76,0-1.22-3.1-.45-3.1-2.3,0-.77.61-1.42,2-1.42a3,3,0,0,1,1.64.44l-.24.57a2.69,2.69,0,0,0-1.4-.41c-.87,0-1.25.36-1.25.79,0,1.22,3.1.46,3.1,2.28,0,.76-.63,1.42-2,1.42A3.1,3.1,0,0,1,344.2,392.3Z" style="fill:#fff"></path><path d="M352.18,390.6v2.27h-.67v-.5a1.43,1.43,0,0,1-1.27.55c-.87,0-1.43-.46-1.43-1.11s.4-1.11,1.56-1.11h1.11v-.13c0-.58-.35-.91-1-.91a2,2,0,0,0-1.23.4l-.29-.51a2.64,2.64,0,0,1,1.6-.48C351.58,389.07,352.18,389.57,352.18,390.6Zm-.7,1.12v-.53H350.4c-.7,0-.9.27-.9.59s.33.61.86.61A1.14,1.14,0,0,0,351.48,391.72Z" style="fill:#fff"></path><path d="M356.84,389.1l-1.7,3.77h-.71l-1.7-3.77h.73l1.33,3,1.36-3Z" style="fill:#fff"></path><path d="M360.88,391.22h-3.15a1.31,1.31,0,0,0,1.41,1.1,1.43,1.43,0,0,0,1.11-.46l.39.44a2,2,0,0,1-1.53.62A1.92,1.92,0,0,1,357,391a1.87,1.87,0,0,1,2-1.92,1.84,1.84,0,0,1,1.91,1.94C360.89,391.07,360.88,391.15,360.88,391.22Zm-3.15-.5h2.49a1.26,1.26,0,0,0-2.49,0Z" style="fill:#fff"></path></g><g id="freepik--Floor--inject-75"><path d="M469.62,460.06c0,.14-101,.26-225.61.26s-225.63-.12-225.63-.26,101-.26,225.63-.26S469.62,459.91,469.62,460.06Z" style="fill:#263238"></path></g><g id="freepik--Character--inject-75"><path d="M73.17,287.64A21.65,21.65,0,0,1,42,265c1.46-9.18,8.53-16.35,15.67-22.29s15-11.64,19.13-20l15.66-.36-1,42.46Z" style="fill:#455a64"></path><path d="M72.84,286.05a1.38,1.38,0,0,1-.45-.05c-.29-.06-.73-.12-1.27-.26a30.9,30.9,0,0,1-4.53-1.49A33,33,0,0,1,47,261a30.78,30.78,0,0,1-.7-4.71c0-.56,0-1,0-1.3a2.28,2.28,0,0,1,0-.45,11.72,11.72,0,0,1,.23,1.73,35.3,35.3,0,0,0,.85,4.64,33.86,33.86,0,0,0,19.36,23,36.92,36.92,0,0,0,4.43,1.63A15.43,15.43,0,0,1,72.84,286.05Z" style="fill:#fafafa"></path><path d="M72.45,287.75a1.2,1.2,0,0,1-.45,0,12.3,12.3,0,0,1-1.29-.13,29.58,29.58,0,0,1-4.67-1,31.55,31.55,0,0,1-21.17-21.71,28.32,28.32,0,0,1-.92-4.69c-.08-.55-.08-1-.1-1.29a1.7,1.7,0,0,1,0-.45,12.11,12.11,0,0,1,.3,1.72,34.23,34.23,0,0,0,1.07,4.61,32.3,32.3,0,0,0,20.94,21.45,33.7,33.7,0,0,0,4.58,1.19A15.65,15.65,0,0,1,72.45,287.75Z" style="fill:#fafafa"></path><path d="M73.48,282.43s-.15,0-.42-.06-.68-.13-1.19-.28a29.27,29.27,0,0,1-4.24-1.54,31.74,31.74,0,0,1-18.09-22.32,29.45,29.45,0,0,1-.63-4.45c0-.53,0-.95,0-1.23s0-.42,0-.42a11.87,11.87,0,0,1,.2,1.63,36.83,36.83,0,0,0,.79,4.39,32.75,32.75,0,0,0,17.89,22.07,34.88,34.88,0,0,0,4.14,1.67A14.11,14.11,0,0,1,73.48,282.43Z" style="fill:#fafafa"></path><path d="M128.81,428.49l-1.36,20.56s20.46,6.78,20.58,10.61l-40,.29.81-32.12Z" style="fill:#FFBD59"></path><g style="opacity:0.6000000000000001"><path d="M115.15,446.94a1.64,1.64,0,0,0-1.19,1.83,1.58,1.58,0,0,0,1.81,1.19A1.73,1.73,0,0,0,117,448a1.62,1.62,0,0,0-2-1" style="fill:#fff"></path></g><g style="opacity:0.6000000000000001"><path d="M108.05,460l.08-3.24,38.1.66a3.14,3.14,0,0,1,1.8,2.29Z" style="fill:#fff"></path></g><path d="M128.1,448.86c0,.2-1,.26-2,.85s-1.51,1.41-1.69,1.32.15-1.2,1.35-1.9S128.15,448.68,128.1,448.86Z" style="fill:#263238"></path><path d="M132.24,450.72c0,.19-.82.5-1.5,1.3s-.91,1.68-1.1,1.66-.29-1.12.59-2.11S132.24,450.54,132.24,450.72Z" style="fill:#263238"></path><path d="M134.47,455.81c-.18,0-.42-.95.11-2s1.46-1.45,1.54-1.29-.51.72-.93,1.59S134.66,455.8,134.47,455.81Z" style="fill:#263238"></path><path d="M127.89,444.14c-.08.18-1-.12-2.08-.08s-2,.37-2.07.2.75-.84,2.06-.88S128,444,127.89,444.14Z" style="fill:#263238"></path><g style="opacity:0.30000000000000004"><polygon points="128.54 432.56 128.3 436.23 108.67 435.45 108.74 432.15 128.54 432.56"></polygon></g><path d="M128.09,440a3.73,3.73,0,0,1-2-.07,9.45,9.45,0,0,1-3.2-1.35,2.28,2.28,0,0,1-.59-.49.85.85,0,0,1-.06-1,1.08,1.08,0,0,1,.87-.42,2.58,2.58,0,0,1,.74.13,7.24,7.24,0,0,1,1.24.46,7,7,0,0,1,1.8,1.27c.9.88,1.2,1.62,1.13,1.66s-.52-.56-1.44-1.3a7.8,7.8,0,0,0-1.76-1.06,7.26,7.26,0,0,0-1.14-.39c-.42-.12-.78-.14-.89.05s-.05.1,0,.22a1.81,1.81,0,0,0,.43.36c.35.24.7.45,1,.64a12.31,12.31,0,0,0,1.91.8A14.2,14.2,0,0,1,128.09,440Z" style="fill:#263238"></path><path d="M127.83,440.26a3.15,3.15,0,0,1-.47-1.95,6.53,6.53,0,0,1,.34-2.18,5.82,5.82,0,0,1,.55-1.2,1.66,1.66,0,0,1,1.3-1,.94.94,0,0,1,.82.58,2.93,2.93,0,0,1,.18.74,4.32,4.32,0,0,1,0,1.35,4.59,4.59,0,0,1-.91,2c-.81,1-1.64,1.22-1.65,1.16s.63-.46,1.26-1.44a4.6,4.6,0,0,0,.69-1.86,4,4,0,0,0,0-1.15c0-.43-.19-.78-.35-.74s-.55.3-.72.63a7.07,7.07,0,0,0-.53,1.07,7.55,7.55,0,0,0-.45,2C127.75,439.5,127.94,440.24,127.83,440.26Z" style="fill:#263238"></path><path d="M62.22,435.44,54.8,454.66s17.51,12.57,16.49,16.26L33,459.3l10.33-30.42Z" style="fill:#FFBD59"></path><g style="opacity:0.6000000000000001"><path d="M43.69,449A1.63,1.63,0,0,0,42,450.38a1.56,1.56,0,0,0,1.37,1.67,1.71,1.71,0,0,0,1.76-1.48c0-.8-.82-1.71-1.61-1.58" style="fill:#fff"></path></g><g style="opacity:0.6000000000000001"><path d="M33,459.3l1-3.07,36.54,12.51a2.77,2.77,0,0,1,.78,2.51Z" style="fill:#fff"></path></g><path d="M55.48,454.68c-.07.18-1-.05-2.13.23s-1.87.88-2,.75.5-1.1,1.85-1.41S55.58,454.52,55.48,454.68Z" style="fill:#263238"></path><path d="M58.88,457.69c0,.19-.93.23-1.83.79s-1.36,1.33-1.54,1.26.06-1.16,1.19-1.84S58.93,457.51,58.88,457.69Z" style="fill:#263238"></path><path d="M59.49,463.21c-.18,0-.12-1,.7-1.88s1.83-.95,1.85-.77-.69.54-1.36,1.24S59.68,463.25,59.49,463.21Z" style="fill:#263238"></path><path d="M56.69,450.11c-.14.14-.9-.4-2-.69s-2-.24-2-.43,1-.58,2.22-.23S56.83,450,56.69,450.11Z" style="fill:#263238"></path><g style="opacity:0.30000000000000004"><polygon points="60.75 439.25 59.43 442.67 40.92 436.09 41.97 432.96 60.75 439.25"></polygon></g><path d="M58.11,446.21a3.83,3.83,0,0,1-1.89-.67,9,9,0,0,1-1.77-1.29,10.24,10.24,0,0,1-.89-.95,2.53,2.53,0,0,1-.41-.64.85.85,0,0,1,.25-1,1,1,0,0,1,1-.14,2.4,2.4,0,0,1,.68.34,7.19,7.19,0,0,1,1,.81,7,7,0,0,1,1.35,1.75,3.42,3.42,0,0,1,.58,1.92c-.11,0-.33-.7-1-1.67a7.57,7.57,0,0,0-2.33-2.25c-.37-.24-.71-.36-.87-.22s-.08.08,0,.23a1.8,1.8,0,0,0,.31.47,9,9,0,0,0,.8.91,11.07,11.07,0,0,0,1.58,1.34C57.45,445.81,58.15,446.11,58.11,446.21Z" style="fill:#263238"></path><path d="M57.78,446.39a3.18,3.18,0,0,1,.13-2,6.44,6.44,0,0,1,1-2,6.72,6.72,0,0,1,.88-1,1.66,1.66,0,0,1,1.54-.53.93.93,0,0,1,.61.8,3.07,3.07,0,0,1,0,.76,4.34,4.34,0,0,1-.44,1.27,4.57,4.57,0,0,1-1.48,1.68c-1.08.72-1.92.68-1.92.61s.74-.25,1.63-1a4.43,4.43,0,0,0,1.21-1.57,4.29,4.29,0,0,0,.35-1.1c.08-.42,0-.8-.13-.81s-.61.12-.87.39a7.42,7.42,0,0,0-.83.86,7.27,7.27,0,0,0-1,1.77C57.93,445.64,57.89,446.4,57.78,446.39Z" style="fill:#263238"></path><path d="M143.37,136.53c1.79.9,1.91,3.14,1.08,4.78s-2.35,3-3.25,4.59-1,3.81.66,4.88c1.39.88,3.7.79,4.45,2.11,1.17,2.05-3,3.88-2.82,6.16s4.29,3.19,4.14,5.43c-.11,1.57-2.42,2.83-1.9,4.34.8,2.34,6.54.76,7.14,3.15.46,1.82-3.09,3.06-2.7,4.89.27,1.29,2.21,1.63,3.54,2.31a3.85,3.85,0,0,1,2.21,3.73,4.34,4.34,0,0,1-3,3.39c1.64,1,3.34,2.13,4.23,3.69a3.43,3.43,0,0,1-1.07,4.72c-.78.45-1.85.67-2.25,1.39-.7,1.28,1.31,2.37,1.78,3.7s-1,2.93-2.47,3.81-3.33,1.65-4,3.09a21.59,21.59,0,0,1-.87,2.61c-.94,1.48-3.34,1.77-5.29,1.49s-3.91-.91-5.86-.57c-3.78.66-6.34,4.82-10.14,4.29-2.45-.34-3.83-2.52-4.53-4.53s-1.21-4.25-3.12-5.57c-1-.7-2.34-1.06-3.27-1.85-1.74-1.47-1.53-4-.48-5.9s2.79-3.53,3.92-5.42,1.52-4.35,0-6c-.81-.84-2.15-1.47-2.23-2.56s1.24-2,1.79-3c.91-1.71-.38-3.59-1.14-5.33s-.4-4.36,1.79-4.65" style="fill:#263238"></path><path d="M149.17,203.11a5.55,5.55,0,0,0,1.47-1.64,5.28,5.28,0,0,0,.61-2.47,4.5,4.5,0,0,0-1.16-3.07c-.39-.47-1-.75-1.5-1.4a1.69,1.69,0,0,1-.27-1.16,3.33,3.33,0,0,1,.36-1.13,6,6,0,0,0,.85-2.08,1.07,1.07,0,0,0-.42-.88,2.57,2.57,0,0,0-1.07-.39,9.64,9.64,0,0,1-1.3-.26,2.15,2.15,0,0,1-1.2-.82,2.47,2.47,0,0,1-.4-1.43,9.64,9.64,0,0,1,.16-1.42,8.15,8.15,0,0,0,.22-2.72,2.66,2.66,0,0,0-1.75-1.87,12.25,12.25,0,0,1-2.66-1.33,2.17,2.17,0,0,1-.78-1.38,2.47,2.47,0,0,1,.34-1.5c.48-.86,1.15-1.5,1.55-2.25a3.22,3.22,0,0,0,.23-2.38c-.4-1.61-1.49-2.86-2.25-4.2a6.49,6.49,0,0,1-.83-2.1,5,5,0,0,1,.1-2.09c.34-1.28.87-2.33,1.12-3.31a4.68,4.68,0,0,0,0-2.53,2.49,2.49,0,0,0-.88-1.32c-.31-.21-.5-.26-.49-.29a1.41,1.41,0,0,1,.55.2,2.52,2.52,0,0,1,1,1.35,4.84,4.84,0,0,1,.11,2.66c-.24,1-.75,2.1-1,3.32a4.51,4.51,0,0,0-.06,1.94,6.15,6.15,0,0,0,.8,2c.74,1.28,1.89,2.54,2.34,4.3a3.7,3.7,0,0,1-.25,2.72c-.45.84-1.12,1.5-1.54,2.26a1.67,1.67,0,0,0,.33,2.24A12,12,0,0,0,144,179.9a4.56,4.56,0,0,1,1.3.85,2.62,2.62,0,0,1,.74,1.4,8.6,8.6,0,0,1-.23,2.9,3.37,3.37,0,0,0,.15,2.47c.43.67,1.34.75,2.18.9a2.9,2.9,0,0,1,1.27.49,1.59,1.59,0,0,1,.59,1.27,6.37,6.37,0,0,1-.92,2.25,1.87,1.87,0,0,0-.15,1.88c.35.53,1,.85,1.44,1.37a4.8,4.8,0,0,1,1.18,3.33,5.39,5.39,0,0,1-.73,2.56,4.18,4.18,0,0,1-1.13,1.25A2.32,2.32,0,0,1,149.17,203.11Z" style="fill:#455a64"></path><path d="M133.69,262.65s8.82,18.79,8.82,30.8-9.13,139.83-9.13,139.83l-31.25-1.13,8.8-169.31Z" style="fill:#263238"></path><path d="M118.11,289c0,2.13-25.94,89.64-25.94,89.64L65.62,441.45,39.39,433l25.3-78s5.48-31.38,6.19-45.69a203,203,0,0,1,2.32-24.38,15.27,15.27,0,0,1,2.22-5.58c2.53-3.89,7.5-11.43,10.4-15.34,4-5.42,32.29-1.37,32.29-1.37Z" style="fill:#263238"></path><path d="M92.43,377.75a1.75,1.75,0,0,1,0-.25c0-.19.1-.42.17-.71.18-.65.43-1.55.73-2.69l2.79-9.89,9.34-32.59c3.64-12.73,6.92-24.26,9.23-32.62,1.13-4.15,2-7.53,2.69-9.91q.45-1.71.72-2.7c.08-.28.14-.51.2-.7a.74.74,0,0,1,.08-.23.74.74,0,0,1,0,.24l-.15.72-.62,2.72c-.57,2.36-1.43,5.76-2.54,10-2.22,8.39-5.43,19.94-9.08,32.67S99,356,96.52,364.31c-1.23,4.12-2.23,7.48-2.94,9.84l-.82,2.67-.23.69A.72.72,0,0,1,92.43,377.75Z" style="fill:#455a64"></path><path d="M122,179.86c.83.15,8.8,3.5,12.42,5a5.21,5.21,0,0,1,2.63,2.48l17.78,35.87-13.75,9.52s-3.87,28.47-7.41,29.89c-1.32.53-43.9,0-43.9,0s-4.5,4.76-6.35,2.91a6.06,6.06,0,0,1-1.58-4.5l0-61.09L75,186.22S104,176.69,122,179.86Z" style="fill:#FFBD59"></path><path d="M88.7,196.32l.76,29.09-24.79,2.38c0-.17-4.3-31.52,13.19-43.1Z" style="fill:#FFBD59"></path><path d="M140.06,227.78c-.14-.94-.3-2-.57-3.81-.37-2.63-.86-6-1.4-9.79l-1.38-9.8c-.16-1.17-.3-2.16-.41-3a5,5,0,0,1-.09-1.1,4,4,0,0,1,.29,1.06c.15.7.35,1.7.57,2.95.44,2.5,1,6,1.53,9.78s1,7.3,1.26,9.82c.14,1.26.23,2.28.28,3,0,.36,0,.63,0,.82v.13s0,.09-.08,0v0A.17.17,0,0,1,140.06,227.78Z" style="fill:#263238"></path><path d="M64.67,227.79a11.3,11.3,0,0,1,1.77-.27l4.84-.55c4.09-.44,9.74-1,16-1.61l2.17-.2-.24.26c-.14-5.77-.25-10.91-.3-14.6,0-1.78,0-3.24,0-4.35a10.36,10.36,0,0,1,0-1.59,9.21,9.21,0,0,1,.14,1.58c0,1.11.12,2.58.2,4.36.14,3.69.3,8.82.46,14.59v.24l-.24,0-2.17.21c-6.25.6-11.91,1.11-16,1.46l-4.86.38A12.63,12.63,0,0,1,64.67,227.79Z" style="fill:#263238"></path><path d="M105.56,251.5c0-.07,1.33.84,3.53,2.08a46.29,46.29,0,0,0,18.66,5.87c2.51.23,4.08.22,4.08.31a4.89,4.89,0,0,1-1.1.1,28.9,28.9,0,0,1-3,0A41.48,41.48,0,0,1,118,258a40.9,40.9,0,0,1-9-4.11c-1.08-.67-1.93-1.25-2.5-1.69A4.53,4.53,0,0,1,105.56,251.5Z" style="fill:#263238"></path><g style="opacity:0.2"><path d="M135.84,245.25c-6,1.77-12.66-.47-18.77,1a24.43,24.43,0,0,0-7.71,3.71c-5.15,3.47-9.71,7.84-15.19,10.77a11.63,11.63,0,0,1-6.54,1.75c-2.28-.24-4.55-1.92-4.75-4.2,6.13-4.67,13.67-7.92,20.21-12,2.45-1.54,8.75-5.57,8.75-5.57s3.28-.26,6-.45l10.48-.74c1.68-.11,3.5-.2,4.91.72,1.88,1.23,2.56,4,4.66,4.75"></path></g><path d="M92.73,195.33a9.72,9.72,0,0,1,.39,1.53c.23,1,.48,2.44.74,4.24a62.13,62.13,0,0,1,.34,14.21A55.92,55.92,0,0,1,92.93,223a51.24,51.24,0,0,1-1.9,6.12c-.3.86-.64,1.61-.93,2.27a17.36,17.36,0,0,1-.78,1.68,8.3,8.3,0,0,1-.76,1.39,9.77,9.77,0,0,1,.58-1.47c.2-.46.44-1,.7-1.71s.57-1.43.85-2.29a58.14,58.14,0,0,0,1.77-6.1,62.21,62.21,0,0,0,1.23-7.67,68.84,68.84,0,0,0-.2-14.11c-.21-1.8-.4-3.25-.57-4.25A8.26,8.26,0,0,1,92.73,195.33Z" style="fill:#455a64"></path><path d="M129.36,182.86a5.7,5.7,0,0,1,.55,1.2c.33.78.75,1.93,1.22,3.37a104.31,104.31,0,0,1,3,11.45c.92,4.54,1.54,8.68,1.93,11.68.19,1.5.33,2.72.41,3.56a6.78,6.78,0,0,1,.07,1.31,5.81,5.81,0,0,1-.27-1.28c-.16-.94-.35-2.13-.58-3.54-.48-3-1.15-7.1-2.07-11.62s-2-8.56-2.83-11.45c-.43-1.44-.79-2.61-1.06-3.41A7.35,7.35,0,0,1,129.36,182.86Z" style="fill:#455a64"></path><path d="M87.83,208.41c-.06.13-4.63-1.78-10.22-4.26s-10.07-4.6-10-4.74,4.64,1.78,10.22,4.26S87.89,208.28,87.83,208.41Z" style="fill:#fafafa"></path><path d="M121.63,217.87c0,.13-7.44-2.28-16.51-5.4s-16.39-5.75-16.34-5.89,7.44,2.28,16.51,5.4S121.68,217.73,121.63,217.87Z" style="fill:#fafafa"></path><path d="M136.54,204.06a15.54,15.54,0,0,1-1.9,2.33c-1.25,1.37-3,3.2-5.16,5.09a71.37,71.37,0,0,1-5.65,4.53,14.1,14.1,0,0,1-2.53,1.61,20.35,20.35,0,0,1,2.31-1.91c1.44-1.14,3.42-2.75,5.52-4.62s3.93-3.65,5.24-5A20.78,20.78,0,0,1,136.54,204.06Z" style="fill:#fafafa"></path><path d="M142.83,199.32a21.39,21.39,0,0,1-2.59,4,22.44,22.44,0,0,1-3,3.73,22.83,22.83,0,0,1,2.6-4A23.32,23.32,0,0,1,142.83,199.32Z" style="fill:#fafafa"></path><path d="M106.71,131.27c-1.34-.35-2.51,1-3.16,2.2s-1.34,2.7-2.7,3c-1.11.22-2.31-.46-3.34,0-1.77.77-1.13,3.77-2.69,4.9s-3.85-.47-5.53.4c-2,1.05-1.53,4.72-3.68,5.47-1,.36-2.33-.18-3.2.5-1.51,1.17.46,3.72-.35,5.44-1,2.08-4.88,1-5.83,3.13-.85,1.88,1.78,4.15.74,5.93-.91,1.58-3.92,1.2-4.34,3-.32,1.35,1.35,2.6,1,3.95-.51,1.91-4.32,1.54-4.36,3.52,0,1.26,1.77,2.08,1.57,3.33-.16,1-1.42,1.3-2.31,1.82a3.4,3.4,0,0,0,1.7,6.33,25.82,25.82,0,0,1,12.71-7.79c4.4-1.16,9-1.11,13.56-1.51s9.22-1.33,12.85-4.09,5.86-7.76,4.21-12" style="fill:#263238"></path><path d="M122.11,129.43c1.4-5.29,7.79-3.89,10.64-1.72,2.34-1.91,3.89-2.77,7.91-2,3,.59,7,3.21,8.46,6.73a10.94,10.94,0,0,1-1.57,10.77c-.79,1-1.79,1.92-2,3.17-.26,1.8,1.27,3.3,2.08,4.93a6.9,6.9,0,0,1-1.84,8.25c-1.52,1.2-3.59,1.78-4.65,3.39-.89,1.35-.85,3.1-1.35,4.64a8.07,8.07,0,0,1-6.73,5.12,12.45,12.45,0,0,1-8.4-2.41" style="fill:#263238"></path><path d="M111,136.76l.82-3.13,19.72,1.73c5.94,1,10.55,8.57,9.28,14.46-1.42,6.55-3.4,14.49-5.52,19.07-4.26,9.22-12,8.36-12,8.36l-1.38,4.05a11.4,11.4,0,0,1-14.58,7.07h0a11.4,11.4,0,0,1-7.17-13.91Z" style="fill:#a36957"></path><path d="M135.46,155.76a1.28,1.28,0,0,1-1.54.91,1.24,1.24,0,0,1-1-1.48,1.28,1.28,0,0,1,1.54-.91A1.22,1.22,0,0,1,135.46,155.76Z" style="fill:#263238"></path><path d="M137.93,153.44c-.2.11-.94-.85-2.27-1.22s-2.5,0-2.6-.19.19-.34.7-.53a3.61,3.61,0,0,1,2.14-.05,3.4,3.4,0,0,1,1.75,1.17C138,153.05,138,153.38,137.93,153.44Z" style="fill:#263238"></path><path d="M123,152.48a1.29,1.29,0,0,1-1.55.91,1.24,1.24,0,0,1-1-1.48A1.28,1.28,0,0,1,122,151,1.24,1.24,0,0,1,123,152.48Z" style="fill:#263238"></path><path d="M124.77,150c-.2.12-.94-.84-2.28-1.21s-2.49,0-2.59-.19.18-.34.7-.53a3.5,3.5,0,0,1,2.13-.05,3.42,3.42,0,0,1,1.76,1.17C124.81,149.6,124.86,149.93,124.77,150Z" style="fill:#263238"></path><path d="M126.81,161.23a8.82,8.82,0,0,1,2.27.22c.35.06.69.08.82-.13a1.78,1.78,0,0,0,0-1.08c-.08-.91-.17-1.87-.27-2.87-.35-4.08-.51-7.4-.34-7.41a47.47,47.47,0,0,1,.94,7.36c.08,1,.15,2,.22,2.88a2,2,0,0,1-.2,1.39.88.88,0,0,1-.7.34,2.53,2.53,0,0,1-.6-.09A9.59,9.59,0,0,1,126.81,161.23Z" style="fill:#263238"></path><path d="M123.27,177.25a25.56,25.56,0,0,1-12-7.1s1.12,7.95,11,9.78Z" style="fill:#7c3b29"></path><path d="M125.34,164.28a2.48,2.48,0,0,0-1.9-1.5,2.31,2.31,0,0,0-1.75.38,1.45,1.45,0,0,0-.55,1.56,1.66,1.66,0,0,0,1.62.93,5.21,5.21,0,0,0,2-.53,1.28,1.28,0,0,0,.49-.29.43.43,0,0,0,.14-.49" style="fill:#7c3b29"></path><path d="M122.63,161c.22.05-.19,1.49.76,2.87s2.53,1.65,2.48,1.86-.42.18-1.07,0a3.75,3.75,0,0,1-2.1-1.47,3.25,3.25,0,0,1-.55-2.38C122.27,161.32,122.53,161,122.63,161Z" style="fill:#263238"></path><path d="M126.59,144.86c-.24.32-1.52-.22-3.13-.48s-3-.18-3.12-.57c0-.18.27-.46.88-.66a5.23,5.23,0,0,1,2.47-.15,5.34,5.34,0,0,1,2.29.94C126.48,144.34,126.69,144.7,126.59,144.86Z" style="fill:#263238"></path><path d="M138.53,149.44c-.32.24-1.15-.34-2.25-.66s-2.09-.38-2.22-.75c-.05-.18.18-.44.67-.62a3.42,3.42,0,0,1,3.6,1.14C138.64,149,138.68,149.32,138.53,149.44Z" style="fill:#263238"></path><path d="M146.46,138.7c-2.38,3-7.11,7.27-10.94,6.74a11.35,11.35,0,0,1-8.75-6.76c-1.29,2.61-4.74,3.27-7.64,3a11.35,11.35,0,0,1-5.79-1.95,6.07,6.07,0,0,1-2.6-5.31c.23-2,4.31-6.15,6.36-6" style="fill:#263238"></path><path d="M119.16,138.85a6.23,6.23,0,0,1-5.09,7.15,7.49,7.49,0,0,1-.55,6.51,17.48,17.48,0,0,1-4.52,5s2.06,5.7-5.58,7.45c0,0-4.33-2.7-.35-9.25a2.14,2.14,0,0,0,.32-1.57,2.72,2.72,0,0,0-.92-1.22,8.12,8.12,0,0,1-2.45-5.54,8,8,0,0,1,2.15-5.66,5.52,5.52,0,0,0,1-1.29c.35-.76,1.51-2.68,1.43-3.52-.39-4.35,2.77-8.81,8.08-10,4.26-1,9-.07,11.08,3.79" style="fill:#263238"></path><path d="M110.07,147.52a7.62,7.62,0,0,1-.25,6.61c-1,1.37-2.07,3.18-1.16,4.59.35.54,1,.91,1.17,1.52.34,1-.5,1.94-1.35,2.51s-1.88,1.09-2.21,2.06c-.67,2,2,3.62,2,5.69.06,1.66-1.53,2.92-1.91,4.54-.51,2.27,1.47,4.41,1.47,6.75a4.09,4.09,0,0,1-1.53,3.16c-1.15.92-2.74,1.16-3.88,2.09a8.27,8.27,0,0,0-2.14,3.82,7.44,7.44,0,0,1-2.23,3.76c-1.19.87-3.2.78-3.84-.56a9.69,9.69,0,0,1-2.26,5.3c-1.38,1.37-3.88,1.78-5.24.38-1.18-1.23-1.48-3.63-3.19-3.75-1.27-.09-2.4,1.34-3.61.95-1.36-.43-1.27-2.63-2.53-3.29s-3.21.61-4.15-.49.53-3-.42-4.07-3.06.39-4.28-.47-2.77-5.16-1.85-6.25c10.94-13,25.33-22.54,38.12-33.67" style="fill:#263238"></path><path d="M112.5,128c1-2.28,2-4.66,1.88-7.14s-1.89-5.06-4.36-5.26a4.12,4.12,0,0,0-4,5.25,17.74,17.74,0,0,0-5.78-2.93,6,6,0,0,0-6,1.64c-1.38,1.68-1,4.68.94,5.56-1.84-.09-3.9.76-4.52,2.5-.77,2.13,1,4.47,3.2,5.16s4.49.21,6.71-.18,4.63-.69,6.66.31,3.3,3.8,1.95,5.61" style="fill:#263238"></path><path d="M104.12,132a3.44,3.44,0,0,1,.75-1.39,9.69,9.69,0,0,1,2.88-2.52,9.54,9.54,0,0,1,3.62-1.21,3.32,3.32,0,0,1,1.58,0,16.41,16.41,0,0,0-4.94,1.61A16.58,16.58,0,0,0,104.12,132Z" style="fill:#FFBD59"></path><path d="M107.69,128.83a10.17,10.17,0,0,1,2,2.45c1.14,1.6,2.39,4.11,4.72,5.91a7.25,7.25,0,0,0,3.77,1.45,12.59,12.59,0,0,0,3.39-.17c1.93-.33,3.11-.65,3.13-.57s-.27.15-.8.33a22.77,22.77,0,0,1-2.26.61,12.5,12.5,0,0,1-3.5.28,7.55,7.55,0,0,1-4-1.51,13.33,13.33,0,0,1-2.89-3.18c-.74-1.09-1.32-2.11-1.83-2.94C108.41,129.8,107.63,128.88,107.69,128.83Z" style="fill:#455a64"></path><path d="M106.25,130.48c.1,0-.17,1.1-.19,2.85a5.07,5.07,0,0,0,.82,2.83,6.45,6.45,0,0,0,1.3,1.23,3.26,3.26,0,0,1,1,1.86,5.55,5.55,0,0,0,.6,1.79,4.49,4.49,0,0,0,1.18,1.27,6.73,6.73,0,0,0,2.78,1.13c1.73.28,2.85.21,2.85.31a2,2,0,0,1-.78.11,11.44,11.44,0,0,1-2.12-.06,6.69,6.69,0,0,1-3-1.1,4.79,4.79,0,0,1-1.33-1.39,5.76,5.76,0,0,1-.68-1.94,2.78,2.78,0,0,0-.8-1.61,6.79,6.79,0,0,1-1.35-1.33,5.26,5.26,0,0,1-.79-3.1,11.15,11.15,0,0,1,.31-2.11C106.12,130.73,106.21,130.47,106.25,130.48Z" style="fill:#455a64"></path><path d="M140.74,126a2.9,2.9,0,0,1,.91.45,7.71,7.71,0,0,1,2,2,8.76,8.76,0,0,1,1.49,3.84,9.59,9.59,0,0,1-.75,5,11.1,11.1,0,0,1-3,4.05,12.92,12.92,0,0,1-3.51,2.13,14,14,0,0,1-2.64.78,3.21,3.21,0,0,1-1,.09,36.83,36.83,0,0,0,3.5-1.21A13.37,13.37,0,0,0,141,141a10.88,10.88,0,0,0,2.83-3.89,9.29,9.29,0,0,0,.75-4.72,8.84,8.84,0,0,0-1.31-3.69A10.41,10.41,0,0,0,140.74,126Z" style="fill:#455a64"></path><path d="M131.63,126.67a2.15,2.15,0,0,1,.7.4,8.42,8.42,0,0,1,1.61,1.51,9.89,9.89,0,0,1-.5,13.38,8.47,8.47,0,0,1-1.72,1.38,2.17,2.17,0,0,1-.73.34,25.08,25.08,0,0,0,2.18-2,10,10,0,0,0,.49-12.9A22.72,22.72,0,0,0,131.63,126.67Z" style="fill:#455a64"></path><path d="M98.4,119a13,13,0,0,0,.21,2,7.51,7.51,0,0,0,2.71,3.9,16.53,16.53,0,0,0,4.39,2.19,9.1,9.1,0,0,1,1.92.77,8,8,0,0,1-2-.42,13.78,13.78,0,0,1-4.58-2.13,7.07,7.07,0,0,1-2.75-4.24A3.17,3.17,0,0,1,98.4,119Z" style="fill:#455a64"></path><path d="M91.22,126.77a5.38,5.38,0,0,0,1.6,1.58,13.18,13.18,0,0,0,5.35,1.3,51.61,51.61,0,0,0,7.92-.16,7.46,7.46,0,0,1-2.29.54,24.34,24.34,0,0,1-5.68.14,12,12,0,0,1-5.5-1.51A2.77,2.77,0,0,1,91.22,126.77Z" style="fill:#455a64"></path><path d="M87.62,197.12a2.8,2.8,0,0,0,.67.22,2.23,2.23,0,0,0,1.8-.72,2.62,2.62,0,0,0,.71-1.24,4.71,4.71,0,0,0,.06-1.73c-.14-1.25-.77-2.63-.76-4.31a3.45,3.45,0,0,1,.91-2.46,10.09,10.09,0,0,1,2.4-1.43,3,3,0,0,0,1-.89,1.41,1.41,0,0,0,.26-1.22,2,2,0,0,0-.93-1,4.8,4.8,0,0,1-1.32-1,1.69,1.69,0,0,1-.19-1.78,3.25,3.25,0,0,1,1.22-1.3c1-.64,2.22-.72,3.15-1.31a2.17,2.17,0,0,0,1-1.21,3.11,3.11,0,0,0,0-1.63,18.76,18.76,0,0,0-1.46-3.29,5.11,5.11,0,0,1-.48-1.86,2.69,2.69,0,0,1,.11-1c0-.15.09-.31.15-.46l.23-.43a7.85,7.85,0,0,1,2.79-2.34,12.67,12.67,0,0,0,2.76-1.89,2.88,2.88,0,0,0,.82-2.79c-.2-1-.68-2-.83-3a2.7,2.7,0,0,1,.23-1.58,2.83,2.83,0,0,1,1.06-1.13A23,23,0,0,0,105.3,153a2.44,2.44,0,0,0,.87-2.1c0-.79-.17-1.55-.16-2.3a6.76,6.76,0,0,1,.32-2.07,7.34,7.34,0,0,1,1.68-2.87,6.78,6.78,0,0,1,1.66-1.28,3.8,3.8,0,0,1,.5-.23c.11,0,.17-.06.17,0a8.4,8.4,0,0,0-2.18,1.7,7.33,7.33,0,0,0-1.55,2.81,6.39,6.39,0,0,0-.27,2c0,.7.17,1.46.19,2.29a3.4,3.4,0,0,1-.17,1.29,2.58,2.58,0,0,1-.8,1.13,22.23,22.23,0,0,1-2.39,1.4A2.14,2.14,0,0,0,102.1,157c.13,1,.61,1.9.84,3a3.39,3.39,0,0,1-.93,3.23,12.76,12.76,0,0,1-2.86,2,7.36,7.36,0,0,0-2.6,2.17l-.2.36c0,.13-.08.27-.12.4a2.06,2.06,0,0,0-.1.82,4.6,4.6,0,0,0,.44,1.67A18.69,18.69,0,0,1,98.05,174a3.64,3.64,0,0,1,0,1.91,2.65,2.65,0,0,1-1.18,1.48c-1.06.66-2.29.75-3.16,1.3a2.76,2.76,0,0,0-1,1.09,1.17,1.17,0,0,0,.12,1.28A4.46,4.46,0,0,0,94,182a2.43,2.43,0,0,1,1.12,1.24,1.89,1.89,0,0,1-.33,1.61,3.61,3.61,0,0,1-1.15,1,10.1,10.1,0,0,0-2.33,1.33,3.12,3.12,0,0,0-.82,2.18c0,1.58.55,3,.67,4.28a4.75,4.75,0,0,1-.1,1.82,2.78,2.78,0,0,1-.81,1.32,2.32,2.32,0,0,1-2,.69A1.24,1.24,0,0,1,87.62,197.12Z" style="fill:#455a64"></path><path d="M74.1,170.55a1.83,1.83,0,0,1-.17-.54,3.31,3.31,0,0,1,.1-1.61,6.4,6.4,0,0,1,1.28-2.21,20.82,20.82,0,0,1,2.48-2.28,7.56,7.56,0,0,0,2.4-3.07,6.54,6.54,0,0,0,.26-2.16,5,5,0,0,1,.47-2.44,2.55,2.55,0,0,1,2.35-1.19c.9,0,1.76.21,2.62.24a2.17,2.17,0,0,0,2.15-.86,7,7,0,0,0,.51-2.62,4,4,0,0,1,.41-1.44,2.5,2.5,0,0,1,1.11-1.05,5.61,5.61,0,0,1,2.81-.3,9.74,9.74,0,0,0,2.56.12,2.4,2.4,0,0,0,1.93-1.06,3.81,3.81,0,0,0,.13-2.21,3.26,3.26,0,0,1,.52-2.3,4.37,4.37,0,0,1,1.72-1.36,8.81,8.81,0,0,1,1.87-.64c1.24-.27,2.36-.32,3.3-.58a6.64,6.64,0,0,0,2.28-.93,3.71,3.71,0,0,0,1.31-1.62,1.71,1.71,0,0,1-.16.54,3.16,3.16,0,0,1-1,1.25,6.73,6.73,0,0,1-2.33,1c-1,.29-2.1.37-3.28.66a9.16,9.16,0,0,0-1.79.64,3.94,3.94,0,0,0-1.53,1.25,2.81,2.81,0,0,0-.43,2,4.11,4.11,0,0,1-.16,2.48,2.91,2.91,0,0,1-2.29,1.33,10.83,10.83,0,0,1-2.67-.11,5.17,5.17,0,0,0-2.54.26,2,2,0,0,0-.88.83,3.61,3.61,0,0,0-.35,1.26,7,7,0,0,1-.58,2.82,2.34,2.34,0,0,1-1.18,1,3.72,3.72,0,0,1-1.43.15c-.92,0-1.78-.26-2.6-.25a2.08,2.08,0,0,0-1.94.93c-.71,1.33-.17,3.05-.73,4.5A7.9,7.9,0,0,1,78,164.19a21.31,21.31,0,0,0-2.5,2.19,6.23,6.23,0,0,0-1.3,2.08A4,4,0,0,0,74.1,170.55Z" style="fill:#455a64"></path><path d="M127.73,224.22l3.28-8.3a.75.75,0,0,1,.69-.46h15.94a.74.74,0,0,1,.69,1l-9.39,25.46a.74.74,0,0,1-.69.48h-16.7a.74.74,0,0,1-.68-1Z" style="fill:#263238"></path><path d="M145.76,247.1l1.35-16.42-1.38-7.19-2.2,6v2.41c-.82-.21-8.38-6.63-10.42-5.24s-7.23,9-7.23,9,9.15,8.93,10.61,9.6c0,0-1.66,6.59-2.18,9s-1,9.41,2.18,10.49,11.83-6.59,10.62-11.44C146.3,250.06,145.76,247.1,145.76,247.1Z" style="fill:#a36957"></path><path d="M86.54,226l.8,9.6,23.11-8.45,10.29-4.76,4.5,1.13s14.15.93,14.27,1.83.78,1.67,0,1.8-12,.64-12,.64,12.07.77,12.34,1.67-.12,2.32-.76,2.32H126s12.35.77,12.48,1.28,1,1.42-.13,1.8-12.48.78-12.48.78l10.68,1.93s.38,1.67-.52,1.67-24.18,1.54-24.18,1.54S84.6,258.14,79.45,259.4s-9.64-4.69-10.28-8.9c-1-6.34-1.84-22.94-1.84-22.94Z" style="fill:#a36957"></path><path d="M111.86,240.75l.47-.06,1.39-.11,5.34-.4,8.42-.58,5.26-.36,2.87-.19a2.14,2.14,0,0,0,1.29-.33c.22-.23-.13-.74-.47-1l.09,0-10.68-1.91a.22.22,0,0,1-.18-.25.21.21,0,0,1,.21-.18l6.33-.28,3.3-.2c.55,0,1.11-.08,1.67-.14s1.17-.07,1.47-.37.14-.92-.19-1.12a7.14,7.14,0,0,0-.77-.13l-.87-.1-3.53-.37L126,232a.24.24,0,0,1-.23-.27.25.25,0,0,1,.25-.24h13.06c.17,0,.37-.22.5-.48a1.13,1.13,0,0,0-.26-1.51,6.87,6.87,0,0,0-1.39-.3l-1.5-.21-3-.36-5.9-.61a.26.26,0,0,1-.23-.28.27.27,0,0,1,.24-.24l7.61-.36,3.7-.21a2.45,2.45,0,0,0,.78-.12.55.55,0,0,0,.2-.56,1,1,0,0,0-.33-.63,1.58,1.58,0,0,0-.72-.28c-2.31-.48-4.66-.7-6.92-1s-4.49-.46-6.64-.66h0l-4.5-1.14h.15l-10.3,4.73h0L93.58,233.4,89,235l-1.2.41a3.12,3.12,0,0,1-.42.13,2.49,2.49,0,0,1,.4-.18l1.19-.46,4.58-1.73,16.87-6.26h0l10.28-4.79a.22.22,0,0,1,.14,0l4.5,1.12h0q3.22.27,6.65.63c2.27.26,4.6.47,7,1a2.07,2.07,0,0,1,.93.39,1.54,1.54,0,0,1,.49.94,1.06,1.06,0,0,1-.42,1.05,2.54,2.54,0,0,1-1,.18l-3.71.22-7.62.38,0-.52,5.91.61,3,.36,1.51.21a6.44,6.44,0,0,1,1.58.38,1.37,1.37,0,0,1,.66,1,2.13,2.13,0,0,1-.2,1.15,1.64,1.64,0,0,1-.34.5,1,1,0,0,1-.27.2.87.87,0,0,1-.36.08H126l0-.51,7.3.7,3.54.37.87.11a4.15,4.15,0,0,1,.94.18,1.32,1.32,0,0,1,.59.87,1.11,1.11,0,0,1-.29,1,1.56,1.56,0,0,1-.9.4l-.86.11-1.69.13-3.31.19-6.33.26,0-.44,10.67,2h0a.12.12,0,0,1,.08,0,2.56,2.56,0,0,1,.53.65.81.81,0,0,1,0,.93,2.32,2.32,0,0,1-1.53.45l-2.87.17-5.27.32-8.44.49-5.34.29-1.39.06Z" style="fill:#7c3b29"></path><path d="M80,246.48a5.85,5.85,0,0,1,.17-2A12.69,12.69,0,0,1,82,239.92a12.41,12.41,0,0,1,3.5-3.45,5.39,5.39,0,0,1,1.81-.9c.13.16-2.78,1.51-4.88,4.63a15.42,15.42,0,0,0-1.92,4.35A12.69,12.69,0,0,1,80,246.48Z" style="fill:#7c3b29"></path><path d="M139.67,220.85a1.23,1.23,0,1,1-1.64.21A1.16,1.16,0,0,1,139.67,220.85Z" style="fill:#fafafa"></path></g><g id="freepik--Plant--inject-75"><rect x="393.69" y="407.95" width="61.71" height="8.48" style="fill:#263238"></rect><path d="M455.5,416.54H393.58v-8.69H455.5Zm-61.71-.21h61.5v-8.27h-61.5Z" style="fill:#263238"></path><polygon points="399.41 413.61 408.29 457.43 441.15 457.43 449.74 416.43 399.41 413.61" style="fill:#263238"></polygon><polygon points="399.41 453.28 404.15 459.8 444.09 459.8 449.74 453.28 399.41 453.28" style="fill:#455a64"></polygon><path d="M422.22,414.89c-.12,0-.27-20.3-.34-45.33s0-45.34.09-45.34.27,20.29.35,45.33S422.34,414.89,422.22,414.89Z" style="fill:#263238"></path><path d="M436,364.09a2.74,2.74,0,0,1-.17.47c-.14.35-.32.78-.55,1.32-.12.29-.26.6-.4.94s-.27.74-.41,1.16L434,369.3c-.16.47-.29,1-.45,1.5a61.37,61.37,0,0,0-1.73,7.56,91.61,91.61,0,0,0-1,9.45,128.4,128.4,0,0,0,.49,17.25c.2,2.21.4,4,.55,5.22l.15,1.41a3.13,3.13,0,0,1,0,.5,1.38,1.38,0,0,1-.11-.48q-.1-.56-.24-1.41c-.2-1.22-.45-3-.69-5.2a113.6,113.6,0,0,1-.61-17.31,87,87,0,0,1,1-9.5,56.79,56.79,0,0,1,1.83-7.58c.17-.53.31-1,.49-1.5l.51-1.32.45-1.15c.15-.34.3-.65.44-.93l.62-1.29C435.87,364.23,436,364.08,436,364.09Z" style="fill:#263238"></path><path d="M434.39,347.67a3.79,3.79,0,0,1-.2.67l-.64,1.89-.47,1.36c-.15.51-.32,1.05-.5,1.64-.36,1.17-.78,2.51-1.15,4-.19.75-.4,1.53-.62,2.35s-.37,1.68-.57,2.56c-.44,1.77-.75,3.69-1.14,5.7-.68,4-1.28,8.48-1.7,13.19s-.56,9.2-.62,13.29,0,7.77.21,10.86c.06,1.55.16,2.95.23,4.17s.15,2.29.23,3.15.11,1.49.15,2a5.92,5.92,0,0,1,0,.69,3.13,3.13,0,0,1-.12-.68c-.05-.5-.13-1.16-.23-2s-.21-1.91-.3-3.14-.22-2.62-.3-4.17c-.21-3.09-.29-6.79-.3-10.89s.19-8.6.59-13.32,1-9.19,1.73-13.23c.41-2,.73-3.93,1.18-5.7.21-.88.41-1.74.6-2.56s.45-1.6.65-2.35c.39-1.5.84-2.83,1.22-4,.19-.58.37-1.12.53-1.63s.36-.94.51-1.35l.72-1.86A5.75,5.75,0,0,1,434.39,347.67Z" style="fill:#263238"></path><path d="M418.32,418.48a.75.75,0,0,1,0-.24q0-.27-.06-.69c-.05-.65-.11-1.55-.18-2.69-.15-2.37-.36-5.74-.62-9.89-.54-8.35-1.31-19.88-2.72-32.56-.72-6.34-1.55-12.36-2.41-17.82-.46-2.73-.88-5.32-1.35-7.73s-.91-4.67-1.34-6.71-.85-3.89-1.22-5.51-.7-3-1-4.14-.49-2-.64-2.62c-.06-.28-.12-.5-.16-.68s0-.24,0-.24a.92.92,0,0,1,.09.23l.19.67c.18.62.42,1.49.73,2.59s.68,2.51,1.06,4.13.86,3.45,1.29,5.5.93,4.29,1.38,6.71.92,5,1.4,7.73c.88,5.46,1.73,11.49,2.45,17.84,1.4,12.69,2.13,24.24,2.59,32.59.22,4.18.38,7.56.48,9.9,0,1.14.07,2,.1,2.69,0,.29,0,.52,0,.7A.87.87,0,0,1,418.32,418.48Z" style="fill:#263238"></path><path d="M421.72,334c-.27-2.87-3.17-5-6.06-5.07a9.54,9.54,0,0,0-7.35,4,22.89,22.89,0,0,0-3.54,7.85,53.24,53.24,0,0,0-2.17,20.89c.83,7,3.67,13.89,8.69,18.84.82.8,1.88,1.61,3,1.37a3.66,3.66,0,0,0,1.58-1A46.77,46.77,0,0,0,431,345.31c-.08-2.67-.43-5.44-1.9-7.65s-4.91-4.58-7.42-3.69" style="fill:#FFBD59"></path><path d="M400.15,310.94l-4.06,7.37c-.1.17-.23.36-.42.38s-.37-.19-.49-.37l-10.76-16.5,2.48-1.41Z" style="fill:#FFBD59"></path><g style="opacity:0.2"><path d="M400.15,310.94l-4.06,7.37c-.1.17-.23.36-.42.38s-.37-.19-.49-.37l-10.76-16.5,2.48-1.41Z"></path></g><path d="M422,324.22l-36.69-21.65c-.37-.22-.78-.48-.89-.9s.26-1.07.65-1.47a25.29,25.29,0,0,1,19.61-7.71,22.39,22.39,0,0,1,17.72,11c3.54,6.32,3.66,14.69-.4,20.7" style="fill:#FFBD59"></path><path d="M390.57,295.66a1.5,1.5,0,0,1,.48-.06c.32,0,.78-.08,1.39-.07a27.25,27.25,0,0,1,5.09.41,29.76,29.76,0,0,1,7.25,2.2,29.73,29.73,0,0,1,16.49,19.28,27.11,27.11,0,0,1,.91,5,10.59,10.59,0,0,1,.06,1.06,1.9,1.9,0,0,1-.29.81,6.05,6.05,0,0,0,.06-1.86,30.12,30.12,0,0,0-24.54-26.22,32.12,32.12,0,0,0-5-.54C391.24,295.68,390.57,295.7,390.57,295.66Z" style="fill:#263238"></path><path d="M417,309.27a8.21,8.21,0,0,1-1.85.85c-1.17.46-2.8,1.05-4.63,1.63s-3.5,1-4.72,1.34a9.24,9.24,0,0,1-2,.38,9.52,9.52,0,0,1,1.91-.68l4.68-1.46,4.65-1.51A11.45,11.45,0,0,1,417,309.27Z" style="fill:#263238"></path><path d="M411.23,293.76a16.23,16.23,0,0,1,.43,4.09,15.39,15.39,0,0,1-.23,4.11,26.75,26.75,0,0,1-.21-4.1A23.86,23.86,0,0,1,411.23,293.76Z" style="fill:#263238"></path><path d="M385,302.16a15.4,15.4,0,0,1,2.67-.94c1.66-.51,4-1.16,6.57-1.79s4.95-1.1,6.67-1.4a16.54,16.54,0,0,1,2.8-.38,20.67,20.67,0,0,1-2.74.68c-1.7.38-4,.91-6.63,1.53s-4.9,1.22-6.59,1.66A20.8,20.8,0,0,1,385,302.16Z" style="fill:#263238"></path><path d="M406.49,327.73c-3.15-2.39-6.49-2.86-10.44-2.7a31.78,31.78,0,0,0-11.44,3c-6.19,2.71-12,6.7-15.7,12.35s-5,13.14-2.21,19.3a2.75,2.75,0,0,0,1.25,1.52A3,3,0,0,0,370,361c7-2.3,14.12-4.61,20.59-8.21s12.36-8.59,15.83-15.12a13.13,13.13,0,0,0,1.67-5,6.29,6.29,0,0,0-1.62-4.91" style="fill:#FFBD59"></path><path d="M406.56,327a2.12,2.12,0,0,1-.51.21l-1.47.5-1.07.36c-.39.14-.8.31-1.25.49-.89.36-1.92.72-3,1.24l-1.73.79c-.59.28-1.19.62-1.82.94-1.28.63-2.57,1.43-3.94,2.24a66.73,66.73,0,0,0-8.33,6.17,68.36,68.36,0,0,0-7.2,7.48c-1,1.26-1.93,2.44-2.72,3.62-.4.59-.81,1.14-1.16,1.7l-1,1.61c-.66,1-1.15,2-1.62,2.83-.23.42-.45.81-.64,1.17l-.49,1-.69,1.39a2.48,2.48,0,0,1-.27.48,2.62,2.62,0,0,1,.19-.51l.61-1.44c.14-.31.3-.66.46-1s.39-.77.61-1.2c.45-.85.93-1.84,1.57-2.87.32-.52.64-1.07,1-1.64s.76-1.12,1.15-1.71c.78-1.2,1.73-2.4,2.71-3.67a65.51,65.51,0,0,1,7.22-7.56,66.47,66.47,0,0,1,8.4-6.19c1.39-.81,2.7-1.6,4-2.22.64-.31,1.24-.65,1.85-.92l1.74-.76c1.11-.51,2.15-.85,3.05-1.19.46-.17.88-.33,1.27-.46l1.08-.32,1.5-.43A3.3,3.3,0,0,1,406.56,327Z" style="fill:#263238"></path><path d="M381.91,340.34a74.81,74.81,0,0,1-7.68,2.47,72.07,72.07,0,0,1-7.8,2.05,76.78,76.78,0,0,1,7.68-2.47A72.07,72.07,0,0,1,381.91,340.34Z" style="fill:#263238"></path><path d="M381.59,357.28a12.26,12.26,0,0,1-.17-2.4c0-1.47-.05-3.52,0-5.77s.18-4.3.3-5.77a12.27,12.27,0,0,1,.31-2.38,13.66,13.66,0,0,1,0,2.39c-.05,1.62-.11,3.59-.17,5.77s-.11,4.14-.15,5.76A14.33,14.33,0,0,1,381.59,357.28Z" style="fill:#263238"></path><path d="M396.1,349.88c-.12,0-.51-4.14-.86-9.27s-.55-9.3-.43-9.31.51,4.15.87,9.28S396.22,349.88,396.1,349.88Z" style="fill:#263238"></path><path d="M378,330.9a14.05,14.05,0,0,1,2.46-.07c1.52,0,3.61.05,5.92.13s4.41.17,5.92.26a12.57,12.57,0,0,1,2.45.24,14.05,14.05,0,0,1-2.46.07c-1.51,0-3.61-.06-5.92-.13s-4.41-.17-5.92-.26A13.47,13.47,0,0,1,378,330.9Z" style="fill:#263238"></path><path d="M412.86,381.43a2.75,2.75,0,0,1-.05-.49c0-.37,0-.83-.06-1.41-.06-1.22-.07-3,0-5.19s.19-4.81.45-7.7.7-6.06,1.29-9.36,1.34-6.41,2.09-9.21,1.55-5.31,2.29-7.38,1.36-3.74,1.85-4.87l.56-1.3a1.93,1.93,0,0,1,.22-.44,2.08,2.08,0,0,1-.14.47c-.13.35-.29.79-.48,1.33-.44,1.15-1,2.83-1.72,4.91s-1.44,4.58-2.19,7.38-1.44,5.9-2.05,9.19-1,6.44-1.32,9.32-.46,5.48-.54,7.67-.12,3.95-.12,5.18c0,.57,0,1,0,1.41A1.72,1.72,0,0,1,412.86,381.43Z" style="fill:#263238"></path><path d="M414.8,357.41a9.68,9.68,0,0,1-1.46,1.61c-.95,1-2.3,2.22-3.84,3.56s-3,2.52-4,3.34a9.48,9.48,0,0,1-1.78,1.24,11.52,11.52,0,0,1,1.59-1.48l3.94-3.43c1.47-1.29,2.8-2.47,3.91-3.46A13.07,13.07,0,0,1,414.8,357.41Z" style="fill:#263238"></path><path d="M426.41,366.77a18.56,18.56,0,0,1-1.56-2.16l-3.62-5.29-3.7-5.24a16.85,16.85,0,0,1-1.49-2.21,14,14,0,0,1,1.74,2c1,1.3,2.37,3.12,3.81,5.18s2.67,4,3.52,5.37A14.73,14.73,0,0,1,426.41,366.77Z" style="fill:#263238"></path><path d="M420.33,337.35c.06.1-3.79,2.7-8.62,5.8s-8.78,5.53-8.85,5.43,3.79-2.7,8.62-5.8S420.26,337.25,420.33,337.35Z" style="fill:#263238"></path><path d="M431.2,349.09a73.93,73.93,0,0,1-5.83-5.39,72.86,72.86,0,0,1-5.53-5.71,73.21,73.21,0,0,1,5.84,5.39A71.53,71.53,0,0,1,431.2,349.09Z" style="fill:#263238"></path><path d="M433.94,348.85l3.31-.27a16.46,16.46,0,0,0,6.69-2.05,25.81,25.81,0,0,1,3.11-1.56c4.1-1.65,8.67-1.35,13.07-1.57a54,54,0,0,0,20.79-5.32,2.07,2.07,0,0,0,.91-.82c.68-1.24-.59-2.34-1.67-3-5.58-3.44-11.26-6.92-17.59-8.63s-13.51-1.42-18.9,2.3c-6.34,4.36-8.65,13.32-9.72,20.93" style="fill:#FFBD59"></path><path d="M481.89,336.85a2.25,2.25,0,0,1-.56-.26l-1.57-.82c-1.36-.72-3.32-1.77-5.8-3a54,54,0,0,0-9-3.46,29.57,29.57,0,0,0-11.63-.94,19.88,19.88,0,0,0-10.6,4.55,23.43,23.43,0,0,0-5.52,7.76c-1.17,2.48-1.88,4.59-2.41,6-.24.7-.44,1.25-.59,1.67a2.67,2.67,0,0,1-.23.58,4,4,0,0,1,.15-.6l.51-1.7a55.37,55.37,0,0,1,2.28-6.11,23.47,23.47,0,0,1,5.54-7.93A20.13,20.13,0,0,1,453.3,328a29.6,29.6,0,0,1,11.8,1,52.67,52.67,0,0,1,9,3.57c2.47,1.23,4.41,2.33,5.74,3.09l1.53.89A3.29,3.29,0,0,1,481.89,336.85Z" style="fill:#263238"></path><path d="M473.94,341.12c-.07.11-4.4-2.7-9.67-6.25s-9.5-6.52-9.43-6.62,4.4,2.7,9.67,6.25S474,341,473.94,341.12Z" style="fill:#263238"></path><path d="M469.32,328a11,11,0,0,1-3.15.57,10.78,10.78,0,0,1-3.22,0,22.61,22.61,0,0,1,3.18-.32A21.64,21.64,0,0,1,469.32,328Z" style="fill:#263238"></path><path d="M450.36,325.55a8.19,8.19,0,0,1-1.42,2.22,9.43,9.43,0,0,1-1.8,2,8.51,8.51,0,0,1,1.42-2.22A9.74,9.74,0,0,1,450.36,325.55Z" style="fill:#263238"></path><path d="M454.24,343.68a11.39,11.39,0,0,1-2.08-1.13c-1.25-.76-2.94-1.88-4.75-3.19s-3.4-2.55-4.55-3.46a12.46,12.46,0,0,1-1.79-1.54,13,13,0,0,1,2,1.29l4.62,3.36c1.8,1.3,3.45,2.45,4.66,3.27A14,14,0,0,1,454.24,343.68Z" style="fill:#263238"></path><path d="M438.82,362.92c-3.16-.83-6.93,2.24-7.58,5.44s.55,6.48,2,9.42a47.93,47.93,0,0,0,13.06,17.09,32.32,32.32,0,0,0,20,7.36c-1.34-6.21.35-12.69-.39-19A24.71,24.71,0,0,0,444,361.59c-2-.21-4.35-.53-5.15,1.33" style="fill:#FFBD59"></path><path d="M466.23,402.23a2.37,2.37,0,0,1-.45-.21,7.92,7.92,0,0,1-1.18-.8,12.27,12.27,0,0,1-3.12-4.17c-.51-1-1.07-2-1.62-3.21l-1.7-3.76a35,35,0,0,0-2.09-4,30.31,30.31,0,0,0-2.87-3.91c-2.16-2.54-4.48-4.74-6.49-6.84a44.48,44.48,0,0,1-4.95-5.94,21.47,21.47,0,0,1-2.42-4.62,12.16,12.16,0,0,1-.42-1.35,1.78,1.78,0,0,1-.1-.49s.22.65.68,1.78a24,24,0,0,0,2.51,4.51,47.66,47.66,0,0,0,5,5.83c2,2.08,4.35,4.27,6.54,6.83a32.11,32.11,0,0,1,2.9,4,35.76,35.76,0,0,1,2.09,4.07l1.66,3.77c.53,1.17,1.08,2.25,1.56,3.23a12.89,12.89,0,0,0,3,4.18C465.63,401.89,466.25,402.18,466.23,402.23Z" style="fill:#263238"></path><path d="M449.9,397.07a9.1,9.1,0,0,1,.29-2.12c.24-1.3.65-3.09,1.2-5s1.13-3.68,1.6-4.91a10.2,10.2,0,0,1,.86-2,11.61,11.61,0,0,1-.57,2.07c-.39,1.26-.93,3-1.47,4.93s-1,3.7-1.32,5A12.65,12.65,0,0,1,449.9,397.07Z" style="fill:#263238"></path><path d="M465.63,381.85a13.94,13.94,0,0,1-2.23-.51c-1.36-.36-3.24-.84-5.33-1.32s-4-.83-5.38-1.1a12.47,12.47,0,0,1-2.23-.49,11.14,11.14,0,0,1,2.28.19c1.4.18,3.33.5,5.43,1s4,1,5.32,1.45A10.2,10.2,0,0,1,465.63,381.85Z" style="fill:#263238"></path><path d="M438.18,386.27a12.33,12.33,0,0,1,.34-2.46c.27-1.51.72-3.58,1.31-5.84s1.22-4.29,1.71-5.74a12.47,12.47,0,0,1,.91-2.32,14.87,14.87,0,0,1-.61,2.41c-.42,1.47-1,3.5-1.59,5.76s-1.07,4.31-1.43,5.8A15.33,15.33,0,0,1,438.18,386.27Z" style="fill:#263238"></path><path d="M458.38,368.58c0,.12-3.95-.2-8.8-.71a87.8,87.8,0,0,1-8.76-1.15c0-.12,3.95.2,8.8.71S458.4,368.46,458.38,368.58Z" style="fill:#263238"></path><path d="M455.49,416.4c0,.12-13.86.22-30.95.22s-31-.1-31-.22,13.85-.22,31-.22S455.49,416.28,455.49,416.4Z" style="fill:#455a64"></path><path d="M445.85,434.23c0,.12-9.34.22-20.85.22s-20.86-.1-20.86-.22S413.48,434,425,434,445.85,434.11,445.85,434.23Z" style="fill:#455a64"></path><path d="M445.49,436.78c0,.12-9.18.22-20.49.22s-20.5-.1-20.5-.22,9.18-.22,20.5-.22S445.49,436.66,445.49,436.78Z" style="fill:#455a64"></path><path d="M446.22,432.13c0,.12-9.66.22-21.58.22s-21.57-.1-21.57-.22,9.66-.22,21.57-.22S446.22,432,446.22,432.13Z" style="fill:#455a64"></path></g></svg>